<svg width="10" height="15" viewBox="0 0 10 15" xmlns="http://www.w3.org/2000/svg">
  <path
    d="M3.9999 12.608L1.70667 10.4811C1.31663 10.1194 0.682568 10.1194 0.292529 10.4811C-0.0975097 10.8429 -0.0975097 11.4309 0.292529 11.7927C0.292529 11.7927 1.72767 13.1237 2.87879 14.1913C3.44084 14.7125 4.20392 15.0066 5 15.0066C5.79608 15.0066 6.55916 14.7125 7.12121 14.1913C8.27233 13.1237 9.70747 11.7927 9.70747 11.7927C10.0975 11.4309 10.0975 10.8429 9.70747 10.4811C9.31743 10.1194 8.68337 10.1194 8.29333 10.4811L6.0001 12.608V0.93409C6.0001 0.422094 5.55206 0.00656128 5 0.00656128C4.44795 0.00656128 3.9999 0.422094 3.9999 0.93409V12.608Z" />
</svg>
