<svg width="200" height="200" viewBox="0 0 210 210" xmlns="http://www.w3.org/2000/svg">
  <path
    d="M66.7372 46.3963C66.2079 46.5663 65.757 46.9188 65.4661 47.3902C65.1751 47.8616 65.0632 48.4209 65.1505 48.9672C65.2377 49.5134 65.5185 50.0107 65.942 50.3692C66.3656 50.7278 66.904 50.924 67.4603 50.9225C67.7058 50.9238 67.9499 50.886 68.1834 50.8103C74.7272 48.6902 80.1976 44.1436 83.4569 38.1158C86.7163 32.088 87.5138 25.043 85.6837 18.4455C103.628 14.2724 122.422 15.5878 139.602 22.2194C135.355 27.3021 133.039 33.7075 133.06 40.3157C133.076 46.8458 135.348 53.1721 139.497 58.2338C143.646 63.2956 149.419 66.7849 155.848 68.1169C156.004 68.1463 156.162 68.1616 156.32 68.1626C156.897 68.1584 157.451 67.9425 157.877 67.5565C158.303 67.1705 158.57 66.6415 158.628 66.0713C158.685 65.5011 158.529 64.9299 158.189 64.4674C157.848 64.0049 157.348 63.6838 156.784 63.5658C151.408 62.4519 146.581 59.5336 143.112 55.3003C139.644 51.067 137.744 45.7763 137.733 40.3157C137.718 34.5067 139.862 28.897 143.752 24.5635C143.944 24.7381 144.137 24.9127 144.321 25.1038C154.617 36.007 166.307 45.5201 179.091 53.3996C179.569 53.698 180.022 54.0343 180.446 54.4054C179.17 56.0309 177.688 57.4852 176.036 58.7321C175.568 59.1124 175.266 59.6584 175.195 60.2552C175.123 60.852 175.287 61.4533 175.651 61.9326C176.016 62.412 176.553 62.7322 177.15 62.8259C177.747 62.9196 178.358 62.7796 178.853 62.4353C180.533 61.1694 182.067 59.724 183.43 58.1253C190.497 69.1561 195.039 81.5971 196.734 94.5672C196.812 95.1638 196.844 95.7655 196.83 96.3669C191.755 98.5718 187.368 102.091 184.128 106.558C183.948 106.805 183.82 107.085 183.749 107.381C183.678 107.678 183.667 107.985 183.715 108.286C183.764 108.587 183.872 108.875 184.033 109.135C184.193 109.394 184.404 109.619 184.652 109.798C184.901 109.976 185.182 110.104 185.48 110.175C185.778 110.245 186.088 110.256 186.39 110.208C186.693 110.16 186.983 110.052 187.243 109.892C187.504 109.733 187.731 109.523 187.91 109.276C189.957 106.464 192.546 104.085 195.526 102.277C191.761 114.541 189.574 127.23 189.018 140.041C186.65 137.147 184.939 133.778 184.002 130.166C183.835 129.583 183.445 129.088 182.916 128.788C182.387 128.487 181.761 128.403 181.171 128.555C180.581 128.707 180.074 129.082 179.758 129.6C179.442 130.118 179.342 130.739 179.48 131.329C180.95 136.967 184.005 142.072 188.287 146.047C188.128 146.488 187.943 146.92 187.731 147.339C178.608 165.133 163.862 179.455 145.758 188.104C145.222 188.382 144.815 188.857 144.623 189.428C144.432 190 144.47 190.622 144.732 191.166C144.993 191.709 145.456 192.13 146.023 192.34C146.591 192.551 147.218 192.534 147.773 192.293C166.802 183.2 182.301 168.146 191.89 149.442C192.945 147.369 193.527 145.09 193.595 142.767C193.961 128.747 196.34 114.851 200.659 101.5C201.451 99.0695 201.692 96.4946 201.365 93.9604C199.509 79.7492 194.406 66.149 186.448 54.2018C185.177 52.2903 183.508 50.6729 181.553 49.4595C169.115 41.793 157.742 32.5386 147.723 21.9326C146.287 20.3973 144.533 19.1905 142.582 18.3957C130.569 13.5545 117.693 11.1866 104.734 11.4352C91.7746 11.6838 79.0005 14.5438 67.1844 19.842C66.6384 20.1074 66.2178 20.5739 66.012 21.1426C65.8061 21.7113 65.8313 22.3373 66.082 22.8878C66.3327 23.4384 66.7893 23.8701 67.3549 24.0914C67.9204 24.3127 68.5505 24.3061 69.1112 24.0731C73.0253 22.3105 77.0605 20.8272 81.1864 19.6342C82.7054 25.088 82.0512 30.9142 79.3598 35.9004C76.6685 40.8867 72.1474 44.6491 66.7372 46.4046V46.3963Z" />
  <path
    d="M147.815 132.472C148.385 132.707 149.026 132.707 149.597 132.474C150.168 132.24 150.622 131.791 150.862 131.225C151.848 128.845 152.038 126.213 151.405 123.717C150.771 121.221 149.348 118.994 147.344 117.363C145.341 115.733 142.863 114.787 140.278 114.664C137.692 114.541 135.135 115.248 132.984 116.68C130.833 118.112 129.202 120.194 128.332 122.619C127.462 125.043 127.399 127.681 128.151 130.144C128.904 132.607 130.433 134.764 132.513 136.297C134.593 137.83 137.113 138.657 139.702 138.657C140.304 138.631 140.873 138.376 141.29 137.943C141.707 137.511 141.94 136.935 141.94 136.335C141.94 135.736 141.707 135.16 141.29 134.728C140.873 134.295 140.304 134.039 139.702 134.014C138.116 134.015 136.572 133.51 135.297 132.572C134.022 131.634 133.083 130.313 132.621 128.805C132.158 127.296 132.194 125.68 132.726 124.194C133.257 122.708 134.254 121.431 135.57 120.551C136.887 119.672 138.452 119.236 140.037 119.309C141.621 119.381 143.14 119.958 144.369 120.954C145.599 121.95 146.474 123.313 146.866 124.841C147.257 126.37 147.144 127.983 146.544 129.442C146.31 130.012 146.313 130.65 146.551 131.218C146.789 131.786 147.243 132.237 147.815 132.472Z" />
  <path
    d="M52.8104 143.116C52.3331 142.723 51.7185 142.535 51.1016 142.593C50.4848 142.65 49.9162 142.949 49.521 143.424C45.2033 148.603 48.568 158.224 57.1823 165.336C62.3526 169.596 68.0495 171.848 72.7433 171.844C75.8614 171.844 78.5238 170.843 80.2667 168.773C82.4945 166.1 82.7746 162.239 81.0609 157.896C79.5311 154.018 76.5259 150.099 72.6054 146.861C72.3713 146.652 72.0972 146.492 71.7995 146.391C71.5018 146.29 71.1866 146.25 70.8728 146.273C70.5591 146.295 70.2532 146.381 69.9736 146.525C69.6939 146.668 69.4463 146.866 69.2455 147.107C69.0447 147.348 68.8949 147.626 68.8051 147.926C68.7152 148.226 68.6872 148.541 68.7226 148.852C68.7581 149.162 68.8563 149.463 69.0114 149.735C69.1665 150.007 69.3753 150.245 69.6253 150.435C72.9481 153.179 75.4768 156.429 76.7307 159.579C77.7798 162.239 77.7631 164.504 76.6889 165.814C74.4528 168.49 67.13 167.476 60.1917 161.765C53.2534 156.055 50.9128 149.068 53.1448 146.387C53.339 146.151 53.4844 145.878 53.5727 145.586C53.661 145.294 53.6905 144.987 53.6594 144.683C53.6284 144.379 53.5374 144.084 53.3917 143.816C53.246 143.547 53.0485 143.309 52.8104 143.116Z" />
  <path
    d="M13.8724 114.688C13.8724 117.576 13.7888 120.506 13.6217 123.416C13.4418 126.528 13.7893 129.649 14.6499 132.647C20.0969 151.511 31.2771 168.24 46.6584 180.539C62.0397 192.839 80.8695 200.107 100.568 201.35C100.864 201.35 101.157 201.379 101.454 201.379C103.277 201.38 105.083 201.033 106.774 200.356C107.217 200.182 107.669 199.995 108.133 199.808C113.884 197.459 121.759 194.251 133.871 193.877C134.184 193.876 134.493 193.813 134.78 193.691C135.068 193.569 135.328 193.391 135.545 193.168C135.762 192.944 135.932 192.68 136.044 192.39C136.157 192.1 136.21 191.791 136.2 191.481C136.19 191.17 136.118 190.865 135.987 190.582C135.857 190.3 135.67 190.047 135.44 189.837C135.209 189.628 134.938 189.467 134.644 189.363C134.349 189.259 134.037 189.216 133.725 189.234C120.768 189.65 112.442 193.029 106.365 195.51L105.111 196.025C105.46 192.814 106.516 189.718 108.205 186.958C109.893 184.198 112.172 181.841 114.879 180.056C117.587 178.271 120.656 177.1 123.87 176.628C127.084 176.155 130.363 176.392 133.474 177.322C134.062 177.484 134.691 177.41 135.225 177.117C135.759 176.824 136.157 176.335 136.333 175.754C136.51 175.173 136.45 174.547 136.168 174.009C135.886 173.471 135.404 173.064 134.824 172.875C130.963 171.719 126.889 171.445 122.907 172.074C118.924 172.702 115.136 174.216 111.824 176.504C108.512 178.791 105.762 181.793 103.78 185.285C101.798 188.776 100.634 192.668 100.375 196.67C81.7318 195.398 63.9341 188.45 49.4001 176.77C34.8661 165.089 24.3005 149.243 19.1388 131.383C18.4278 128.884 18.1452 126.283 18.3029 123.69C18.4701 120.693 18.5579 117.663 18.5579 114.688C18.5558 108.144 18.1538 101.607 17.3541 95.1117C17.0324 92.5151 17.1539 89.8833 17.7136 87.327C21.2488 71.0805 29.2304 56.1216 40.7771 44.102C43.7872 47.1823 47.5052 49.4887 51.6108 50.8227C52.1995 51.0134 52.8402 50.9637 53.392 50.6847C53.9438 50.4056 54.3616 49.92 54.5533 49.3347C54.7451 48.7494 54.6952 48.1123 54.4146 47.5636C54.134 47.0148 53.6456 46.5994 53.057 46.4087C49.6476 45.2979 46.5618 43.3778 44.0665 40.8144C46.7506 38.2931 49.5839 35.9337 52.5513 33.7488C53.0501 33.3823 53.3821 32.8337 53.4742 32.2238C53.5663 31.6139 53.411 30.9926 53.0424 30.4965C52.6738 30.0005 52.1221 29.6704 51.5088 29.5788C50.8954 29.4872 50.2706 29.6416 49.7718 30.0082C31.0747 43.7321 18.0475 63.7609 13.1285 86.3461C12.4658 89.4113 12.3245 92.5653 12.7105 95.6769C13.4858 101.984 13.8739 108.333 13.8724 114.688Z" />
  <path
    d="M73.1094 105.929C74.4348 105.949 75.5303 104.6 75.5564 102.915C75.5825 101.23 74.5292 99.8472 73.2039 99.8267C71.8786 99.8062 70.783 101.156 70.757 102.841C70.7309 104.526 71.7841 105.908 73.1094 105.929Z" />
  <path
    d="M87.5079 106.152C88.8332 106.173 89.9287 104.823 89.9548 103.138C89.9809 101.453 88.9277 100.07 87.6023 100.05C86.277 100.029 85.1815 101.379 85.1554 103.064C85.1293 104.749 86.1825 106.132 87.5079 106.152Z" />
  <path
    d="M69.0774 78.2219C68.6401 78.2776 68.2236 78.4934 67.8778 78.8435L49.3168 97.0914C49.0405 97.361 48.8151 97.7069 48.6576 98.1032C48.5002 98.4995 48.4148 98.9358 48.408 99.379C48.4011 99.8222 48.4729 100.261 48.618 100.662C48.7631 101.063 48.9777 101.416 49.2456 101.694L67.2327 120.507C67.4647 120.753 67.7326 120.937 68.0211 121.049C68.3096 121.161 68.6129 121.198 68.9138 121.16C69.2146 121.121 69.5069 121.007 69.7741 120.824C70.0412 120.64 70.2779 120.392 70.4705 120.092C70.6631 119.792 70.8078 119.446 70.8965 119.076C70.9851 118.705 71.0158 118.316 70.9869 117.931C70.958 117.546 70.87 117.173 70.728 116.833C70.5859 116.493 70.3927 116.193 70.1592 115.949L54.3968 99.4869L70.6618 83.4899C71.0715 83.1082 71.3719 82.5644 71.5163 81.9435C71.6607 81.3226 71.6408 80.6596 71.4599 80.058C71.2789 79.4563 70.947 78.9498 70.516 78.6177C70.085 78.2855 69.5791 78.1463 69.0774 78.2219ZM91.8723 78.5748C91.4157 78.6289 90.9813 78.8574 90.6255 79.2307C90.2696 79.604 90.0088 80.1048 89.8769 80.6682C89.745 81.2315 89.7481 81.8313 89.8858 82.3897C90.0235 82.948 90.2894 83.4393 90.649 83.7994L106.411 100.292L90.1464 116.259C89.9056 116.495 89.7031 116.789 89.5506 117.124C89.3981 117.46 89.2986 117.83 89.2578 118.214C89.217 118.598 89.2357 118.987 89.3128 119.361C89.3899 119.734 89.5239 120.084 89.7071 120.389C89.8903 120.695 90.1192 120.951 90.3805 121.143C90.6418 121.334 90.9305 121.457 91.23 121.505C91.5295 121.553 91.8338 121.525 92.1256 121.422C92.4175 121.319 92.691 121.143 92.9305 120.905L111.491 102.657C111.768 102.388 111.993 102.042 112.151 101.646C112.308 101.249 112.393 100.813 112.4 100.37C112.407 99.9266 112.335 99.4879 112.19 99.0869C112.045 98.686 111.831 98.3332 111.563 98.0552L93.5756 79.2414C93.342 78.9892 93.0709 78.8003 92.7782 78.6857C92.4856 78.5712 92.1775 78.5335 91.8723 78.5748Z" />
</svg>
