<svg xmlns="http://www.w3.org/2000/svg" width="200" height="200" viewBox="0 0 210 210">
  <path
    d="M66.7372 46.3962C66.2079 46.5662 65.757 46.9187 65.4661 47.3901C65.1751 47.8615 65.0632 48.4208 65.1505 48.9671C65.2377 49.5133 65.5185 50.0106 65.942 50.3691C66.3656 50.7277 66.904 50.9239 67.4603 50.9224C67.7058 50.9237 67.9499 50.8859 68.1834 50.8102C74.7272 48.6901 80.1976 44.1435 83.4569 38.1157C86.7163 32.0879 87.5138 25.0429 85.6837 18.4454C103.628 14.2723 122.422 15.5877 139.602 22.2193C135.355 27.302 133.039 33.7074 133.06 40.3156C133.076 46.8457 135.348 53.172 139.497 58.2337C143.646 63.2955 149.419 66.7848 155.848 68.1168C156.004 68.1462 156.162 68.1615 156.32 68.1625C156.897 68.1583 157.451 67.9424 157.877 67.5564C158.303 67.1704 158.57 66.6414 158.628 66.0712C158.685 65.501 158.529 64.9298 158.189 64.4673C157.848 64.0048 157.348 63.6837 156.784 63.5657C151.408 62.4518 146.581 59.5335 143.112 55.3002C139.644 51.0669 137.744 45.7762 137.733 40.3156C137.718 34.5066 139.862 28.8969 143.752 24.5634C143.944 24.738 144.137 24.9126 144.321 25.1037C154.617 36.0069 166.307 45.52 179.091 53.3995C179.569 53.6979 180.022 54.0342 180.446 54.4053C179.17 56.0308 177.688 57.4851 176.036 58.732C175.568 59.1123 175.266 59.6583 175.195 60.2551C175.123 60.8519 175.287 61.4532 175.651 61.9325C176.016 62.4119 176.553 62.7321 177.15 62.8258C177.747 62.9195 178.358 62.7795 178.853 62.4352C180.533 61.1693 182.067 59.7239 183.43 58.1252C190.497 69.156 195.039 81.597 196.734 94.5671C196.812 95.1637 196.844 95.7654 196.83 96.3668C191.755 98.5717 187.368 102.091 184.128 106.558C183.948 106.805 183.82 107.085 183.749 107.381C183.678 107.678 183.667 107.985 183.715 108.286C183.764 108.587 183.872 108.875 184.033 109.134C184.193 109.394 184.404 109.619 184.652 109.798C184.901 109.976 185.182 110.104 185.48 110.175C185.778 110.245 186.088 110.256 186.39 110.208C186.693 110.159 186.983 110.052 187.243 109.892C187.504 109.733 187.731 109.523 187.91 109.276C189.957 106.464 192.546 104.085 195.526 102.277C191.761 114.541 189.574 127.23 189.018 140.041C186.65 137.147 184.939 133.778 184.002 130.165C183.835 129.583 183.445 129.088 182.916 128.787C182.387 128.487 181.761 128.403 181.171 128.555C180.581 128.707 180.074 129.082 179.758 129.6C179.442 130.118 179.342 130.739 179.48 131.329C180.95 136.967 184.005 142.072 188.287 146.046C188.128 146.488 187.943 146.92 187.731 147.339C178.608 165.132 163.862 179.454 145.758 188.104C145.222 188.382 144.815 188.857 144.623 189.428C144.432 189.999 144.47 190.622 144.732 191.165C144.993 191.709 145.456 192.13 146.023 192.34C146.591 192.55 147.218 192.534 147.773 192.293C166.802 183.2 182.301 168.146 191.89 149.442C192.945 147.369 193.527 145.09 193.595 142.767C193.961 128.747 196.34 114.851 200.659 101.5C201.451 99.0694 201.692 96.4945 201.365 93.9603C199.509 79.7491 194.406 66.1489 186.448 54.2017C185.177 52.2902 183.508 50.6728 181.553 49.4594C169.115 41.7929 157.742 32.5385 147.723 21.9325C146.287 20.3972 144.533 19.1904 142.582 18.3956C130.569 13.5544 117.693 11.1865 104.734 11.4351C91.7746 11.6837 79.0005 14.5437 67.1844 19.8419C66.6384 20.1073 66.2178 20.5738 66.012 21.1425C65.8061 21.7112 65.8313 22.3372 66.082 22.8877C66.3327 23.4383 66.7893 23.87 67.3549 24.0913C67.9204 24.3126 68.5505 24.306 69.1112 24.073C73.0253 22.3104 77.0605 20.8271 81.1864 19.6341C82.7054 25.0879 82.0512 30.9141 79.3598 35.9003C76.6685 40.8866 72.1474 44.649 66.7372 46.4045V46.3962Z" />
  <path
    d="M85.1486 121.753C85.1037 121.452 84.9993 121.162 84.8415 120.9C84.6836 120.639 84.4754 120.411 84.2288 120.23C83.9822 120.049 83.7021 119.918 83.4044 119.845C83.1068 119.772 82.7976 119.758 82.4945 119.804C78.7107 120.37 74.8474 120.086 71.1885 118.973C70.8888 118.85 70.5666 118.79 70.2425 118.798C69.9184 118.806 69.5994 118.88 69.3059 119.017C69.0123 119.154 68.7507 119.35 68.5375 119.593C68.3243 119.836 68.1643 120.12 68.0677 120.428C67.971 120.736 67.9398 121.06 67.9761 121.38C68.0123 121.701 68.1152 122.01 68.2783 122.289C68.4413 122.567 68.6608 122.809 68.923 122.999C69.1851 123.189 69.484 123.322 69.8008 123.391C72.6841 124.278 75.6854 124.727 78.7036 124.725C80.2003 124.723 81.695 124.614 83.1758 124.397C83.4801 124.352 83.7727 124.249 84.0367 124.092C84.3007 123.935 84.5309 123.728 84.7142 123.482C84.8975 123.237 85.0302 122.957 85.1048 122.661C85.1793 122.364 85.1942 122.056 85.1486 121.753Z" />
  <path
    d="M52.9023 110.141C53.2288 110.65 53.742 111.013 54.3331 111.152C54.9241 111.292 55.5465 111.197 56.0684 110.888C56.5902 110.578 56.9704 110.079 57.1284 109.496C57.2865 108.913 57.2098 108.291 56.9148 107.763C54.5058 103.73 53.2769 99.1074 53.3665 94.417C53.4561 89.7265 54.8607 85.154 57.4221 81.2143C59.9835 77.2746 63.6 74.1242 67.8645 72.1176C72.1289 70.1111 76.872 69.3281 81.5597 69.8569C86.2474 70.3857 90.6936 72.2052 94.3977 75.1106C98.1019 78.016 100.917 81.892 102.526 86.3021C104.135 90.7122 104.473 95.4813 103.504 100.073C102.535 104.664 100.296 108.895 97.0398 112.289C96.8173 112.508 96.6412 112.768 96.5217 113.056C96.4023 113.343 96.3421 113.651 96.3447 113.962C96.3472 114.273 96.4124 114.58 96.5365 114.865C96.6606 115.15 96.841 115.408 97.067 115.623C97.293 115.838 97.56 116.005 97.8523 116.115C98.1446 116.226 98.4561 116.276 98.7685 116.265C99.0809 116.253 99.3878 116.179 99.6709 116.048C99.9541 115.916 100.208 115.729 100.417 115.498C104.272 111.478 106.922 106.468 108.069 101.032C109.216 95.5958 108.814 89.9492 106.908 84.7277C105.003 79.5063 101.67 74.9175 97.2837 71.4778C92.8977 68.038 87.6333 65.884 82.0829 65.2582C76.5326 64.6324 70.9168 65.5596 65.8677 67.9355C60.8185 70.3114 56.5366 74.0416 53.5039 78.7062C50.4711 83.3709 48.808 88.7847 48.7017 94.3382C48.5954 99.8918 50.0502 105.365 52.9023 110.141Z" />
  <path
    d="M147.815 132.472C148.385 132.707 149.026 132.707 149.597 132.474C150.168 132.24 150.622 131.791 150.862 131.225C151.848 128.845 152.038 126.213 151.405 123.717C150.771 121.221 149.348 118.994 147.344 117.363C145.341 115.733 142.863 114.787 140.278 114.664C137.692 114.541 135.135 115.248 132.984 116.68C130.833 118.112 129.202 120.194 128.332 122.619C127.462 125.043 127.399 127.681 128.151 130.144C128.904 132.607 130.433 134.764 132.513 136.297C134.593 137.83 137.113 138.657 139.702 138.657C140.304 138.631 140.873 138.376 141.29 137.943C141.707 137.511 141.94 136.935 141.94 136.335C141.94 135.736 141.707 135.16 141.29 134.728C140.873 134.295 140.304 134.039 139.702 134.014C138.116 134.015 136.572 133.51 135.297 132.572C134.022 131.634 133.083 130.313 132.621 128.805C132.158 127.296 132.194 125.68 132.726 124.194C133.257 122.708 134.254 121.431 135.57 120.551C136.887 119.672 138.452 119.236 140.037 119.309C141.621 119.381 143.14 119.958 144.369 120.954C145.599 121.95 146.474 123.313 146.866 124.841C147.257 126.37 147.144 127.983 146.544 129.442C146.31 130.012 146.313 130.65 146.551 131.218C146.789 131.786 147.243 132.237 147.815 132.472Z" />
  <path
    d="M52.8104 143.116C52.3331 142.723 51.7185 142.535 51.1016 142.593C50.4848 142.65 49.9162 142.949 49.521 143.424C45.2033 148.603 48.568 158.224 57.1823 165.336C62.3526 169.596 68.0495 171.848 72.7433 171.844C75.8614 171.844 78.5238 170.843 80.2667 168.773C82.4945 166.1 82.7746 162.239 81.0609 157.896C79.5311 154.018 76.5259 150.099 72.6054 146.861C72.3713 146.652 72.0972 146.492 71.7995 146.391C71.5018 146.29 71.1866 146.25 70.8728 146.273C70.5591 146.295 70.2532 146.381 69.9736 146.525C69.6939 146.668 69.4463 146.866 69.2455 147.107C69.0447 147.348 68.8949 147.626 68.8051 147.926C68.7152 148.226 68.6872 148.541 68.7226 148.852C68.7581 149.162 68.8563 149.463 69.0114 149.735C69.1665 150.007 69.3753 150.245 69.6253 150.435C72.9481 153.179 75.4768 156.429 76.7307 159.579C77.7798 162.239 77.7631 164.504 76.6889 165.814C74.4528 168.49 67.13 167.476 60.1917 161.765C53.2534 156.055 50.9128 149.068 53.1448 146.387C53.339 146.151 53.4844 145.878 53.5727 145.586C53.661 145.294 53.6905 144.987 53.6594 144.683C53.6284 144.379 53.5374 144.084 53.3917 143.816C53.246 143.547 53.0485 143.309 52.8104 143.116Z" />
  <path
    d="M13.8724 114.688C13.8724 117.576 13.7888 120.506 13.6217 123.416C13.4418 126.528 13.7893 129.649 14.6499 132.647C20.0969 151.511 31.2771 168.24 46.6584 180.539C62.0397 192.839 80.8695 200.107 100.568 201.35C100.864 201.35 101.157 201.379 101.454 201.379C103.277 201.38 105.083 201.033 106.774 200.356C107.217 200.182 107.669 199.995 108.133 199.808C113.884 197.459 121.759 194.251 133.871 193.877C134.184 193.876 134.493 193.812 134.78 193.691C135.068 193.569 135.328 193.391 135.545 193.168C135.762 192.944 135.932 192.68 136.044 192.39C136.157 192.1 136.21 191.791 136.2 191.48C136.19 191.17 136.118 190.865 135.987 190.582C135.857 190.3 135.67 190.047 135.44 189.837C135.209 189.628 134.938 189.467 134.644 189.363C134.349 189.259 134.037 189.216 133.725 189.234C120.768 189.65 112.442 193.029 106.365 195.51L105.111 196.025C105.46 192.814 106.516 189.718 108.205 186.958C109.893 184.198 112.172 181.841 114.879 180.056C117.587 178.271 120.656 177.1 123.87 176.628C127.084 176.155 130.363 176.392 133.474 177.322C134.062 177.484 134.691 177.41 135.225 177.117C135.759 176.824 136.157 176.335 136.333 175.754C136.51 175.173 136.45 174.547 136.168 174.009C135.886 173.471 135.404 173.064 134.824 172.875C130.963 171.719 126.889 171.445 122.907 172.074C118.924 172.702 115.136 174.216 111.824 176.504C108.512 178.791 105.762 181.793 103.78 185.285C101.798 188.776 100.634 192.668 100.375 196.67C81.7318 195.398 63.9341 188.45 49.4001 176.77C34.8661 165.089 24.3005 149.243 19.1388 131.383C18.4278 128.884 18.1452 126.283 18.3029 123.69C18.4701 120.693 18.5579 117.663 18.5579 114.688C18.5558 108.144 18.1538 101.607 17.3541 95.1116C17.0324 92.5151 17.1539 89.8832 17.7136 87.327C21.2488 71.0805 29.2304 56.1216 40.7771 44.102C43.7872 47.1822 47.5052 49.4887 51.6108 50.8226C52.1995 51.0133 52.8402 50.9637 53.392 50.6847C53.9438 50.4056 54.3616 49.92 54.5533 49.3347C54.7451 48.7494 54.6952 48.1123 54.4146 47.5635C54.134 47.0148 53.6456 46.5994 53.057 46.4087C49.6476 45.2979 46.5618 43.3777 44.0665 40.8144C46.7506 38.2931 49.5839 35.9337 52.5513 33.7487C53.0501 33.3822 53.3821 32.8337 53.4742 32.2238C53.5663 31.6138 53.411 30.9925 53.0424 30.4965C52.6738 30.0004 52.1221 29.6703 51.5088 29.5787C50.8954 29.4872 50.2706 29.6416 49.7718 30.0081C31.0747 43.7321 18.0475 63.7609 13.1285 86.3461C12.4658 89.4113 12.3245 92.5652 12.7105 95.6769C13.4858 101.984 13.8739 108.333 13.8724 114.688Z" />
</svg>
