<svg width="24" height="24" viewBox="-2 -1 16 16" xmlns="http://www.w3.org/2000/svg">
  <path
    d="M10.0304 6.78522C10.3715 6.48443 10.6789 6.18256 10.9454 5.88476C11.8742 4.84683 12.2048 3.96178 11.8762 3.39262C11.5476 2.82345 10.6158 2.66724 9.25254 2.95259C8.86139 3.03448 8.44626 3.14976 8.01521 3.29477C7.92527 2.84896 7.81754 2.43181 7.69288 2.05212C7.25841 0.728787 6.6572 0 6 0C5.34279 0 4.74159 0.728787 4.30712 2.05212C4.18246 2.43181 4.07473 2.84896 3.98479 3.29477C3.55374 3.14976 3.13861 3.03448 2.74746 2.95259C1.38421 2.66719 0.452438 2.82345 0.123821 3.39262C-0.204781 3.96178 0.125771 4.84683 1.05458 5.88476C1.32107 6.18256 1.62846 6.48443 1.96956 6.78522C1.62846 7.08602 1.32107 7.38789 1.05458 7.68568C0.125771 8.72362 -0.204781 9.60866 0.123821 10.1778C0.345131 10.5611 0.83989 10.7572 1.55589 10.7571C1.90306 10.7571 2.30229 10.711 2.74746 10.6179C3.13861 10.536 3.55374 10.4207 3.98479 10.2757C4.07473 10.7215 4.18246 11.1386 4.30712 11.5183C4.74159 12.8417 5.34279 13.5704 6 13.5704C6.6572 13.5704 7.25841 12.8417 7.69288 11.5183C7.81754 11.1386 7.92527 10.7215 8.01521 10.2757C8.44626 10.4207 8.86139 10.536 9.25254 10.6179C9.69778 10.7111 10.0969 10.7571 10.4441 10.7571C11.16 10.7571 11.6549 10.5611 11.8762 10.1778C12.2048 9.60866 11.8742 8.72362 10.9454 7.68568C10.6789 7.38789 10.3715 7.08602 10.0304 6.78522ZM9.31971 3.27347C9.74896 3.18361 10.1307 3.13931 10.4554 3.13931C11.0353 3.13931 11.433 3.28073 11.5923 3.55653C11.8407 3.98678 11.5159 4.75571 10.7011 5.66615C10.4341 5.96455 10.1245 6.26747 9.77982 6.5694C9.33146 6.19264 8.83209 5.81956 8.29477 5.46032C8.25233 4.81538 8.17891 4.19638 8.07681 3.61973C8.51065 3.47216 8.92776 3.35553 9.31971 3.27347ZM7.00497 8.52588C6.66988 8.71935 6.33388 8.90071 6 9.06884C5.66612 8.90071 5.33012 8.71935 4.99503 8.52588C4.65994 8.33242 4.33488 8.13211 4.02234 7.92704C4.001 7.55383 3.99007 7.17215 3.99007 6.78522C3.99007 6.3983 4.001 6.01662 4.02234 5.6434C4.33488 5.43833 4.65994 5.23802 4.99503 5.04457C5.33012 4.8511 5.66612 4.66973 6 4.50161C6.33388 4.66973 6.66988 4.8511 7.00497 5.04457C7.34006 5.23802 7.66512 5.43833 7.97766 5.6434C7.999 6.01662 8.00993 6.3983 8.00993 6.78522C8.00993 7.17215 7.999 7.55383 7.97766 7.92704C7.66512 8.13211 7.34006 8.33242 7.00497 8.52588ZM7.94978 8.33538C7.90833 8.8599 7.84584 9.36455 7.76356 9.83981C7.31084 9.67344 6.84255 9.47522 6.36757 9.24886C6.6344 9.11031 6.90199 8.96389 7.16889 8.80979C7.43578 8.6557 7.69638 8.49718 7.94978 8.33538ZM5.63243 9.24886C5.15745 9.47522 4.68916 9.67344 4.23644 9.83981C4.15416 9.36455 4.09167 8.8599 4.05022 8.33538C4.30362 8.49718 4.56422 8.6557 4.83111 8.80979C5.09801 8.96389 5.3656 9.11031 5.63243 9.24886ZM3.68265 7.69872C3.24912 7.40056 2.84331 7.09411 2.47286 6.78522C2.84331 6.47634 3.24912 6.16989 3.68265 5.87173C3.66922 6.17208 3.66224 6.47704 3.66224 6.78522C3.66224 7.09341 3.66922 7.39836 3.68265 7.69872ZM4.05022 5.23507C4.09167 4.71055 4.15416 4.2059 4.23644 3.73064C4.68916 3.89701 5.15745 4.09523 5.63243 4.32159C5.3656 4.46014 5.09801 4.60656 4.83111 4.76065C4.56422 4.91475 4.30362 5.07326 4.05022 5.23507ZM6.36757 4.32159C6.84255 4.09523 7.31084 3.89701 7.76356 3.73064C7.84584 4.2059 7.90833 4.71055 7.94978 5.23507C7.69638 5.07326 7.43578 4.91475 7.16889 4.76065C6.90199 4.60656 6.6344 4.46014 6.36757 4.32159ZM8.31734 5.87173C8.75088 6.16989 9.15669 6.47634 9.52713 6.78522C9.15669 7.09411 8.75088 7.40056 8.31734 7.69872C8.33078 7.39836 8.33776 7.09341 8.33776 6.78522C8.33776 6.47704 8.33078 6.17208 8.31734 5.87173ZM4.61859 2.15439C4.9997 0.993578 5.5032 0.327831 6 0.327831C6.4968 0.327831 7.0003 0.993578 7.38141 2.15439C7.50632 2.53486 7.61387 2.9544 7.70299 3.4039C7.15255 3.6038 6.57976 3.84973 6 4.13543C5.42024 3.84973 4.84745 3.6038 4.29701 3.4039C4.38613 2.9544 4.49368 2.53486 4.61859 2.15439ZM1.29886 5.66615C0.484133 4.75571 0.159329 3.98678 0.407734 3.55653C0.656154 3.12627 1.48448 3.02312 2.68029 3.27347C3.07224 3.35553 3.48935 3.47216 3.92319 3.61973C3.82109 4.19638 3.74767 4.81538 3.70523 5.46032C3.16791 5.81956 2.66854 6.19264 2.22018 6.5694C1.87547 6.26747 1.56591 5.96455 1.29886 5.66615ZM2.68029 10.297C1.48445 10.5473 0.656139 10.4442 0.407734 10.0139C0.159329 9.58366 0.484133 8.81474 1.29886 7.9043C1.56591 7.60589 1.87547 7.30298 2.22018 7.00105C2.66854 7.3778 3.16791 7.75089 3.70523 8.11013C3.74767 8.75506 3.82109 9.37407 3.92319 9.95071C3.48935 10.0983 3.07224 10.2149 2.68029 10.297ZM7.38141 11.4161C7.0003 12.5769 6.4968 13.2426 6 13.2426C5.5032 13.2426 4.9997 12.5769 4.61859 11.4161C4.49368 11.0356 4.38613 10.6161 4.29701 10.1666C4.84745 9.96665 5.42024 9.72072 6 9.43501C6.57976 9.72072 7.15255 9.96665 7.70299 10.1666C7.61387 10.6161 7.50632 11.0356 7.38141 11.4161ZM11.5923 10.0139C11.3438 10.4442 10.5155 10.5473 9.31971 10.297C8.92776 10.2149 8.51065 10.0983 8.07681 9.95071C8.17891 9.37407 8.25233 8.75506 8.29477 8.11013C8.83209 7.75089 9.33146 7.3778 9.77982 7.00105C10.1245 7.30298 10.4341 7.60589 10.7011 7.9043C11.5159 8.81474 11.8407 9.58366 11.5923 10.0139Z" />
</svg>
