<svg width="19" height="19" viewBox="0 0 19 19" xmlns="http://www.w3.org/2000/svg">
  <path
    d="M11.2272 8.63634H9.05088L10.3032 5.50134C10.4845 5.06088 10.2686 4.55997 9.81952 4.37861C9.37906 4.20588 8.87815 4.41315 8.69679 4.86225L6.96952 9.18043C6.86588 9.44815 6.90043 9.75043 7.05588 9.98361C7.21997 10.2254 7.4877 10.3636 7.7727 10.3636H9.94906L8.69679 13.4986C8.51543 13.9391 8.73134 14.44 9.18043 14.6213C9.28406 14.6645 9.39634 14.6818 9.49997 14.6818C9.84543 14.6818 10.165 14.4745 10.3032 14.1377L12.0304 9.81952C12.1341 9.55179 12.0995 9.24952 11.9441 9.01634C11.78 8.77452 11.5122 8.63634 11.2272 8.63634Z" />
  <path
    d="M9.5 0C4.25773 0 0 4.25773 0 9.5C0 14.7423 4.25773 19 9.5 19C14.7423 19 19 14.7423 19 9.5C19 4.25773 14.7423 0 9.5 0ZM9.5 17.2727C5.21636 17.2727 1.72727 13.7836 1.72727 9.5C1.72727 5.21636 5.21636 1.72727 9.5 1.72727C13.7836 1.72727 17.2727 5.21636 17.2727 9.5C17.2727 13.7836 13.7836 17.2727 9.5 17.2727Z" />
</svg>
