<svg width="24" height="24" viewBox="0 0 24 24" xmlns="http://www.w3.org/2000/svg">
  <path
    d="M0 0C0 1.71429 0 3.42857 0 5.14286C3.72093 5.14286 7.44186 5.14286 11.1628 5.14286C11.1628 3.42857 11.1628 1.71429 11.1628 0C7.44186 0 3.72093 0 0 0ZM12.8372 0C12.8372 1.71429 12.8372 3.42857 12.8372 5.14286C16.5581 5.14286 20.2791 5.14286 24 5.14286C24 3.42857 24 1.71429 24 0C20.2791 0 16.5581 0 12.8372 0ZM0 6.28571C0 8 0 9.71428 0 11.4286C2.4186 11.4286 4.83721 11.4286 7.25581 11.4286C7.25581 9.71428 7.25581 8 7.25581 6.28571C4.83721 6.28571 2.4186 6.28571 0 6.28571ZM8.37209 6.28571C8.37209 8 8.37209 9.71428 8.37209 11.4286C10.7907 11.4286 13.2093 11.4286 15.6279 11.4286C15.6279 9.71428 15.6279 8 15.6279 6.28571C13.2093 6.28571 10.7907 6.28571 8.37209 6.28571ZM16.7442 6.28571C16.7442 8 16.7442 9.71428 16.7442 11.4286C19.1628 11.4286 21.5814 11.4286 24 11.4286C24 9.71428 24 8 24 6.28571C21.5814 6.28571 19.1628 6.28571 16.7442 6.28571ZM0 12.5714C0 14.2857 0 16 0 17.7143C3.72093 17.7143 7.44186 17.7143 11.1628 17.7143C11.1628 16 11.1628 14.2857 11.1628 12.5714C7.44186 12.5714 3.72093 12.5714 0 12.5714ZM12.8372 12.5714C12.8372 14.2857 12.8372 16 12.8372 17.7143C16.5581 17.7143 20.2791 17.7143 24 17.7143C24 16 24 14.2857 24 12.5714C20.2791 12.5714 16.5581 12.5714 12.8372 12.5714ZM0 18.8571C0 20.5714 0 22.2857 0 24C2.4186 24 4.83721 24 7.25581 24C7.25581 22.2857 7.25581 20.5714 7.25581 18.8571C4.83721 18.8571 2.4186 18.8571 0 18.8571ZM8.37209 18.8571C8.37209 20.5714 8.37209 22.2857 8.37209 24C10.7907 24 13.2093 24 15.6279 24C15.6279 22.2857 15.6279 20.5714 15.6279 18.8571C13.2093 18.8571 10.7907 18.8571 8.37209 18.8571ZM16.7442 18.8571C16.7442 20.5714 16.7442 22.2857 16.7442 24C19.1628 24 21.5814 24 24 24C24 22.2857 24 20.5714 24 18.8571C21.5814 18.8571 19.1628 18.8571 16.7442 18.8571Z" />
</svg>
