<svg width="20" height="15" viewBox="0 1 20 15" xmlns="http://www.w3.org/2000/svg">
<path fill-rule="evenodd" clip-rule="evenodd" d="M17.4409 9.89362C16.9797 9.89362 16.5483 10.0203 16.1755 10.2383L12.6267 5.52447C13.2484 4.94138 13.6399 4.11255 13.6399 3.19149C13.6399 1.4317 12.219 0 10.4725 0C8.7259 0 7.30496 1.4317 7.30496 3.19149C7.30496 4.11255 7.69646 4.94138 8.31824 5.52447L4.76938 10.2383C4.39657 10.0203 3.96515 9.89362 3.50397 9.89362C2.10678 9.89362 0.969971 11.039 0.969971 12.4468C0.969971 13.8546 2.10678 15 3.50397 15C4.90115 15 6.03796 13.8546 6.03796 12.4468C6.03796 11.7329 5.74465 11.0872 5.27459 10.6235L8.82282 5.91096C9.21907 6.15574 9.67044 6.31787 10.1557 6.3667V9.91564C8.90803 10.0736 7.93846 11.1472 7.93846 12.4468C7.93846 13.8546 9.07527 15 10.4725 15C11.8696 15 13.0064 13.8546 13.0064 12.4468C13.0064 11.1472 12.0369 10.0736 10.7892 9.91564V6.3667C11.2745 6.31787 11.7258 6.15574 12.1221 5.91096L15.6703 10.6235C15.2003 11.0872 14.9069 11.7329 14.9069 12.4468C14.9069 13.8546 16.0438 15 17.4409 15C18.8381 15 19.9749 13.8546 19.9749 12.4468C19.9749 11.039 18.8381 9.89362 17.4409 9.89362Z" fill="#535353"/>
</svg>
