<svg width="24" height="24" viewBox="0 0 18 24" xmlns="http://www.w3.org/2000/svg">
  <path d="M12.6313 0.366943V5.05298H17.3174L12.6313 0.366943Z" />
  <path
    d="M12 6.31613C11.8325 6.31613 11.6719 6.24959 11.5534 6.13115C11.435 6.01271 11.3685 5.85208 11.3685 5.68458V0.000711929H1.89534C1.64464 -0.00625603 1.39515 0.0379863 1.16213 0.130734C0.929115 0.223481 0.717465 0.362785 0.540125 0.540125C0.362785 0.717465 0.223481 0.929115 0.130734 1.16213C0.0379863 1.39515 -0.00625604 1.64464 0.00071193 1.89534V22.1047C-0.00625604 22.3554 0.0379863 22.6049 0.130734 22.8379C0.223481 23.0709 0.362785 23.2825 0.540125 23.4599C0.717465 23.6372 0.929115 23.7765 1.16213 23.8693C1.39515 23.962 1.64464 24.0063 1.89534 23.9993H15.7892C16.0399 24.0063 16.2894 23.962 16.5225 23.8693C16.7555 23.7765 16.9671 23.6372 17.1445 23.4599C17.3218 23.2825 17.4611 23.0709 17.5539 22.8379C17.6466 22.6049 17.6908 22.3554 17.6839 22.1047V6.31613H12ZM13.2631 18.947H4.4215C4.25401 18.947 4.09337 18.8804 3.97494 18.762C3.8565 18.6435 3.78996 18.4829 3.78996 18.3154C3.78996 18.1479 3.8565 17.9873 3.97494 17.8688C4.09337 17.7504 4.25401 17.6839 4.4215 17.6839H13.2631C13.4306 17.6839 13.5912 17.7504 13.7097 17.8688C13.8281 17.9873 13.8946 18.1479 13.8946 18.3154C13.8946 18.4829 13.8281 18.6435 13.7097 18.762C13.5912 18.8804 13.4306 18.947 13.2631 18.947ZM13.2631 15.1577H4.4215C4.25401 15.1577 4.09337 15.0912 3.97494 14.9727C3.8565 14.8543 3.78996 14.6937 3.78996 14.5262C3.78996 14.3587 3.8565 14.198 3.97494 14.0796C4.09337 13.9612 4.25401 13.8946 4.4215 13.8946H13.2631C13.4306 13.8946 13.5912 13.9612 13.7097 14.0796C13.8281 14.198 13.8946 14.3587 13.8946 14.5262C13.8946 14.6937 13.8281 14.8543 13.7097 14.9727C13.5912 15.0912 13.4306 15.1577 13.2631 15.1577ZM13.2631 11.3685H4.4215C4.25401 11.3685 4.09337 11.3019 3.97494 11.1835C3.8565 11.065 3.78996 10.9044 3.78996 10.7369C3.78996 10.5694 3.8565 10.4088 3.97494 10.2903C4.09337 10.1719 4.25401 10.1054 4.4215 10.1054H13.2631C13.4306 10.1054 13.5912 10.1719 13.7097 10.2903C13.8281 10.4088 13.8946 10.5694 13.8946 10.7369C13.8946 10.9044 13.8281 11.065 13.7097 11.1835C13.5912 11.3019 13.4306 11.3685 13.2631 11.3685Z" />
</svg>
