<svg width="24" height="24" viewBox="-2 -3 16 16" xmlns="http://www.w3.org/2000/svg">
  <path
    d="M1.77289 4.82051V0C2.31502 0 2.84249 0 3.36996 0V4.3663L4.68864 4V0C5.21612 0 5.75824 0 6.28571 0V3.54579L7.58974 3.17949V0H9.18681V0.190476V2.73993L12 1.94872V9.99267H0V5.31868L1.77289 4.82051ZM0.3663 5.59707V9.62637H11.6337V2.43223L8.82051 3.22344V0.3663H7.9707V3.45788L5.91941 4.04396V0.3663H5.05494V4.27839L3.00366 4.86447V0.3663H2.15385V5.0989L0.3663 5.59707ZM10.696 5.77289V6.97436H8.46886V5.77289H10.696ZM10.3297 6.13919H8.83517V6.60806H10.3297V6.13919ZM7.38462 5.77289V6.97436H5.14286V5.77289H7.38462ZM7.01831 6.13919H5.52381V6.60806H7.01831V6.13919ZM4.07326 5.77289V6.97436H2.02198H1.8315V5.77289H4.07326ZM3.69231 6.13919H2.21245V6.60806H3.69231V6.13919Z" />
</svg>
