<svg width="24" height="24" viewBox="-2 -2 16 16" xmlns="http://www.w3.org/2000/svg">
  <path
    d="M11.2423 4.59547L10.4041 4.48893C10.3411 4.30493 10.2664 4.12467 10.1815 3.95107L10.6991 3.28467C10.9693 2.936 10.9384 2.4452 10.6285 2.14453L9.8596 1.3756C9.6984 1.20947 9.48147 1.118 9.2488 1.118C9.0576 1.118 8.86813 1.18307 8.71507 1.30133L8.04907 1.81893C7.87533 1.73413 7.6948 1.65947 7.5108 1.59627L7.4044 0.760933C7.3524 0.326933 6.98413 0 6.54773 0H5.45213C5.01587 0 4.64773 0.3264 4.59587 0.758267L4.48933 1.59653C4.30533 1.65987 4.1248 1.73453 3.95107 1.8192L3.28493 1.30107C3.13253 1.18293 2.94293 1.11787 2.7512 1.11787C2.51893 1.11787 2.3032 1.20853 2.14493 1.37173L1.376 2.14067C1.06293 2.4444 1.03093 2.93667 1.3016 3.2856L1.81867 3.9516C1.734 4.12533 1.65933 4.3056 1.596 4.48947L0.760533 4.59587C0.326933 4.6476 0 5.01587 0 5.45227V6.54787C0 6.98347 0.326133 7.352 0.758133 7.40507L1.59627 7.5116C1.65933 7.6956 1.734 7.87587 1.81907 8.0496L1.30147 8.716C1.0312 9.0648 1.06213 9.55547 1.372 9.85613L2.14107 10.6252C2.30227 10.7909 2.51907 10.8823 2.75173 10.8823C2.9432 10.8823 3.13267 10.8172 3.28547 10.6989L3.95147 10.1813C4.12507 10.266 4.3052 10.3407 4.4892 10.404L4.5956 11.2395C4.6476 11.6731 5.01573 12 5.45213 12H6.54773C6.98373 12 7.35213 11.6737 7.40453 11.2419L7.51107 10.4037C7.69507 10.3407 7.87547 10.266 8.04893 10.1809L8.7152 10.6984C8.8676 10.8169 9.05707 10.8823 9.2488 10.8823C9.48107 10.8823 9.69693 10.7915 9.85547 10.6281L10.6244 9.8592C10.9373 9.55547 10.9693 9.06347 10.6987 8.71453L10.1812 8.04853C10.2659 7.87493 10.3405 7.69467 10.4037 7.5108L11.2392 7.4044C11.6731 7.3524 12 6.98427 12 6.54787V5.45227C12 5.01613 11.674 4.64787 11.2423 4.59547ZM9.75787 7.066C9.6728 7.362 9.55547 7.64467 9.40947 7.906C9.33573 8.03747 9.34813 8.1996 9.4408 8.3188L10.1057 9.1744C10.1423 9.22173 10.1395 9.28453 10.0977 9.3252L9.32107 10.1019C9.30213 10.1213 9.27613 10.132 9.2476 10.132C9.2216 10.132 9.19547 10.1228 9.17427 10.1063L8.31867 9.44147C8.25333 9.39027 8.1716 9.36213 8.08813 9.36213C8.02413 9.36213 7.96093 9.37867 7.90547 9.40973C7.64413 9.55587 7.36147 9.6732 7.06547 9.75827C6.92107 9.7996 6.8156 9.9224 6.79693 10.0711L6.65933 11.1504C6.6528 11.2053 6.6028 11.25 6.54773 11.25H5.45213C5.39707 11.25 5.3468 11.2041 5.33987 11.1468L5.20293 10.0708C5.18413 9.922 5.07867 9.7992 4.9344 9.75787C4.63813 9.67267 4.3556 9.55533 4.0936 9.40893C4.038 9.37827 3.97493 9.362 3.91147 9.36187C3.8292 9.36187 3.75 9.3884 3.68067 9.44027L2.82547 10.1048C2.80333 10.1217 2.77773 10.1307 2.7516 10.1307C2.72267 10.1307 2.69573 10.1193 2.67413 10.0971L1.8972 9.32027C1.85893 9.28333 1.85733 9.22053 1.89347 9.17427L2.55813 8.3188C2.6516 8.2 2.664 8.03773 2.59 7.9056C2.44387 7.64413 2.32653 7.36147 2.2416 7.0656C2.20013 6.9212 2.07733 6.81587 1.92867 6.79707L0.849467 6.65947C0.794533 6.65293 0.749867 6.60293 0.749867 6.54787V5.45227C0.749867 5.3972 0.795733 5.3468 0.853067 5.34L1.92907 5.20307C2.07787 5.18427 2.20067 5.0788 2.242 4.93467C2.32773 4.6368 2.44493 4.35427 2.59053 4.09467C2.66427 3.96307 2.65187 3.80093 2.5592 3.68187L1.89427 2.82627C1.85773 2.77893 1.86053 2.716 1.9024 2.67533L2.67893 1.89827C2.69773 1.87907 2.72347 1.8684 2.75173 1.8684C2.7776 1.8684 2.80373 1.8776 2.8252 1.89427L3.68187 2.56C3.7476 2.6104 3.82933 2.63827 3.91187 2.63827C3.976 2.63827 4.03933 2.6216 4.09453 2.5904C4.3556 2.4444 4.63813 2.32733 4.93507 2.24227C5.0792 2.20027 5.1844 2.07733 5.20307 1.92907L5.34067 0.849733C5.3472 0.7948 5.3972 0.750133 5.45227 0.750133H6.54787C6.60307 0.750133 6.65347 0.7964 6.66053 0.853867L6.79747 1.92973C6.81627 2.07853 6.92173 2.20147 7.06587 2.24267C7.3648 2.3288 7.64747 2.44613 7.906 2.5912C7.9616 2.6224 8.0248 2.6388 8.08867 2.6388C8.1716 2.6388 8.25347 2.6108 8.31933 2.55973L9.17533 1.89453C9.1968 1.87773 9.222 1.86893 9.24813 1.86893C9.2772 1.86893 9.30427 1.88027 9.32587 1.9028L10.1027 2.67973C10.1409 2.71667 10.1425 2.77933 10.1065 2.82573L9.44173 3.68133C9.3484 3.80013 9.336 3.9624 9.41 4.09453C9.55613 4.35587 9.67347 4.63853 9.7584 4.9344C9.79973 5.0788 9.92253 5.18427 10.0712 5.20307L11.1505 5.34067C11.2055 5.3472 11.2501 5.3972 11.2501 5.45227V6.54787C11.2501 6.60293 11.204 6.65347 11.1469 6.66053L10.0711 6.79747C9.92213 6.81627 9.7992 6.92173 9.75787 7.066Z" />
  <path
    d="M5.99972 3.42387C4.57932 3.42387 3.42358 4.57947 3.42358 6C3.42358 7.42053 4.57932 8.57613 5.99972 8.57613C7.42012 8.57613 8.57585 7.4204 8.57585 6C8.57585 4.5796 7.42012 3.42387 5.99972 3.42387ZM5.99972 7.82613C4.99278 7.82613 4.17358 7.00693 4.17358 6C4.17358 4.99307 4.99278 4.17387 5.99972 4.17387C7.00665 4.17387 7.82585 4.99307 7.82585 6C7.82585 7.00693 7.00665 7.82613 5.99972 7.82613Z" />
</svg>
