<svg width="15" height="18" viewBox="0 0 15 18" xmlns="http://www.w3.org/2000/svg">
  <path
    d="M12.2236 12.2622C11.5296 12.2622 10.9126 12.5129 10.4306 12.9177L5.34062 10.1221C5.47558 9.79434 5.5527 9.42802 5.5527 9.0617C5.5527 8.67609 5.47558 8.32905 5.34062 8.00128L10.6234 5.05141C11.0668 5.3599 11.626 5.5527 12.2044 5.5527C13.7468 5.5527 14.9807 4.29949 14.9807 2.77635C14.9807 1.23393 13.7275 0 12.2044 0C10.6812 0 9.42802 1.25321 9.42802 2.77635C9.42802 3.29692 9.56298 3.75964 9.81362 4.1838L4.68509 7.03727C4.1838 6.57455 3.52828 6.28535 2.77635 6.28535C1.23393 6.28535 0 7.53856 0 9.0617C0 10.6041 1.25321 11.838 2.77635 11.838C3.509 11.838 4.1838 11.5488 4.68509 11.0861L9.71722 13.8625C9.5437 14.2288 9.4473 14.6337 9.4473 15.0578C9.4473 16.6003 10.7005 17.8342 12.2236 17.8342C13.7468 17.8342 15 16.581 15 15.0578C15 13.5347 13.7468 12.2622 12.2236 12.2622Z" />
</svg>
