<svg width="24" height="24" viewBox="0 -1 12 15" xmlns="http://www.w3.org/2000/svg">
  <path
    d="M4.66809 10.656C4.26809 10.656 3.94409 10.328 3.94409 9.932V3.1C3.94409 2.7 4.27209 2.376 4.66809 2.376C5.06809 2.376 5.39209 2.704 5.39209 3.1V9.928C5.39209 10.328 5.06809 10.656 4.66809 10.656Z" />
  <path
    d="M7.33191 10.668C6.93191 10.668 6.60791 10.34 6.60791 9.944V4.716C6.60791 4.316 6.93591 3.992 7.33191 3.992C7.73191 3.992 8.05591 4.32 8.05591 4.716V9.94C8.05991 10.344 7.73591 10.668 7.33191 10.668Z" />
  <path
    d="M9.99988 10.656C9.59988 10.656 9.27588 10.328 9.27588 9.932V2.06C9.27588 1.66 9.60388 1.336 9.99988 1.336C10.3999 1.336 10.7239 1.664 10.7239 2.06V9.928C10.7239 10.328 10.3999 10.656 9.99988 10.656Z" />
  <path
    d="M1.99988 10.668C1.59988 10.668 1.27588 10.34 1.27588 9.944V6.8C1.27588 6.4 1.60388 6.076 1.99988 6.076C2.39988 6.076 2.72388 6.404 2.72388 6.8V9.944C2.72788 10.344 2.40388 10.668 1.99988 10.668Z" />
</svg>
