<svg width="20" height="24" viewBox="0 0 20 24" xmlns="http://www.w3.org/2000/svg">
  <path
    d="M9.99763 0C7.57289 0 5.14754 0.656697 3.23716 1.9689C-0.50795 4.54145 -1.06427 8.80646 1.88611 11.8769C3.25924 13.2027 3.99414 14.8297 3.99414 16.4993C3.99414 16.897 4.20533 17.2788 4.58041 17.56C4.9555 17.8412 5.4648 17.9995 5.9953 17.9995H14C14.5305 17.9995 15.0398 17.8412 15.4149 17.56C15.7899 17.2788 16.0011 16.897 16.0011 16.4993C16.0011 14.8297 16.7438 13.2066 18.117 11.8808C21.0673 8.81037 20.5032 4.54145 16.7581 1.9689C14.8477 0.656697 12.4224 0 9.99763 0ZM9.99763 0.996168C12.0972 0.996168 14.1968 1.5662 15.8565 2.70627C19.176 4.9864 19.6188 8.77839 16.8779 11.456C15.4449 12.9204 14.667 14.6853 14.667 16.4993C14.667 16.6322 14.5968 16.759 14.4716 16.8529C14.3463 16.9468 14.1771 16.9994 14 16.9994H5.9953C5.81813 16.9994 5.64897 16.9468 5.5237 16.8529C5.39842 16.759 5.32825 16.6322 5.32825 16.4993C5.32825 14.6853 4.54499 12.9234 3.11209 11.4589C0.371295 8.78132 0.81929 4.9864 4.13876 2.70627C5.79846 1.5662 7.89808 0.996168 9.99763 0.996168ZM7.32941 18.9995C6.60032 18.9995 5.93754 19.307 5.5966 19.7496C5.23973 20.213 5.23973 20.7863 5.5966 21.2497C5.93447 21.6883 6.60759 21.9998 7.32941 21.9998H11.9988C12.2382 21.9998 12.4576 22.0944 12.5773 22.2498C12.6969 22.4052 12.6969 22.5944 12.5773 22.7498C12.4576 22.9052 12.2382 22.9999 11.9988 22.9999H7.99647C7.09441 22.9903 7.09441 24.0095 7.99647 23.9999H11.9988C12.7435 23.9999 13.392 23.6925 13.7329 23.2499C14.0898 22.7864 14.0898 22.2132 13.7329 21.7498C13.3951 21.3112 12.6659 20.9997 11.9988 20.9997H7.32941C7.09001 20.9997 6.87195 20.9051 6.75228 20.7497C6.63254 20.5943 6.63254 20.405 6.75228 20.2496C6.87195 20.0942 7.09001 19.9996 7.32941 19.9996H14C14.902 20.0092 14.902 18.99 14 18.9995H7.32941Z" />
</svg>
