<svg width="24" height="24" viewBox="0 0 40 26" xmlns="http://www.w3.org/2000/svg">
  <path d="M15.5 16C16.3284 16 17 15.3284 17 14.5C17 13.6716 16.3284 13 15.5 13C14.6716 13 14 13.6716 14 14.5C14 15.3284 14.6716 16 15.5 16Z" />
  <path d="M24.5 16C25.3284 16 26 15.3284 26 14.5C26 13.6716 25.3284 13 24.5 13C23.6716 13 23 13.6716 23 14.5C23 15.3284 23.6716 16 24.5 16Z" />
  <path
    d="M12.7121 2.41241C12.4394 2.44313 12.1812 2.55236 11.9685 2.72707L0.545836 11.8373C0.375753 11.9719 0.238244 12.1437 0.143688 12.3397C0.0491324 12.5356 0 12.7507 0 12.9686C0 13.1865 0.0491324 13.4015 0.143688 13.5975C0.238244 13.7935 0.375753 13.9652 0.545836 14.0998L11.9685 23.2101C12.1158 23.3289 12.2851 23.4173 12.4664 23.4702C12.6478 23.523 12.8377 23.5393 13.0253 23.518C13.213 23.4967 13.3946 23.4383 13.5597 23.3462C13.7249 23.2541 13.8704 23.13 13.9878 22.9811C14.1053 22.8322 14.1924 22.6614 14.2442 22.4785C14.296 22.2956 14.3115 22.1042 14.2897 21.9152C14.2679 21.7263 14.2093 21.5436 14.1172 21.3775C14.0252 21.2115 13.9015 21.0653 13.7533 20.9475L3.7436 12.9761L13.7533 4.98964C14.0056 4.79889 14.1881 4.52932 14.2723 4.22306C14.3565 3.9168 14.3377 3.59107 14.2188 3.29672C14.0999 3.00237 13.8875 2.75597 13.615 2.59599C13.3424 2.43601 13.0249 2.37146 12.7121 2.41241ZM26.9607 2.41241C26.6758 2.44245 26.4066 2.55806 26.1878 2.74425C25.9691 2.93044 25.8109 3.17859 25.7339 3.45648C25.657 3.73437 25.6647 4.02914 25.7561 4.30255C25.8476 4.57595 26.0185 4.81536 26.2468 4.98964L36.2564 12.9761L26.2468 20.9475C26.0985 21.0653 25.9748 21.2115 25.8828 21.3775C25.7907 21.5436 25.7321 21.7263 25.7103 21.9152C25.6885 22.1042 25.704 22.2956 25.7558 22.4785C25.8076 22.6614 25.8947 22.8322 26.0122 22.9811C26.1296 23.13 26.2751 23.2541 26.4403 23.3462C26.6055 23.4383 26.787 23.4967 26.9747 23.518C27.1623 23.5393 27.3522 23.523 27.5336 23.4702C27.7149 23.4173 27.8842 23.3289 28.0315 23.2101L39.4542 14.0998C39.6242 13.9652 39.7618 13.7935 39.8563 13.5975C39.9509 13.4015 40 13.1865 40 12.9686C40 12.7507 39.9509 12.5356 39.8563 12.3397C39.7618 12.1437 39.6242 11.9719 39.4542 11.8373L28.0315 2.72707C27.8831 2.60491 27.7118 2.51409 27.5279 2.46002C27.3439 2.40596 27.151 2.38978 26.9607 2.41241Z" />
</svg>
