<svg width="24" height="24" viewBox="0 0 24 24" xmlns="http://www.w3.org/2000/svg">
  <path d="M15.6737 8.13565L14.688 9.12134L15.6736 10.107L16.6593 9.1213L15.6737 8.13565Z" />
  <path d="M14.2902 9.51887L3.62061 20.1885L4.60629 21.1742L15.2759 10.5046L14.2902 9.51887Z" />
  <path
    d="M19.8877 13.8436C19.4622 13.7335 19.0873 13.481 18.8254 13.128C18.5634 12.7751 18.4303 12.3431 18.4482 11.904C18.4509 11.8347 18.4278 11.7669 18.3836 11.7136C18.3393 11.6603 18.2769 11.6252 18.2084 11.6151C18.1398 11.6049 18.07 11.6205 18.0122 11.6587C17.9543 11.6968 17.9127 11.755 17.8951 11.8221C17.7851 12.2476 17.5325 12.6225 17.1796 12.8845C16.8266 13.1464 16.3946 13.2795 15.9555 13.2615C15.8862 13.2589 15.8185 13.282 15.7652 13.3262C15.7118 13.3705 15.6768 13.4329 15.6666 13.5014C15.6565 13.5699 15.672 13.6398 15.7102 13.6976C15.7484 13.7554 15.8065 13.7971 15.8736 13.8147C16.2991 13.9248 16.674 14.1773 16.9359 14.5303C17.1979 14.8832 17.331 15.3152 17.3131 15.7544C17.3105 15.8236 17.3335 15.8914 17.3778 15.9447C17.422 15.998 17.4844 16.033 17.5529 16.0432C17.6215 16.0533 17.6914 16.0378 17.7492 15.9996C17.807 15.9614 17.8486 15.9032 17.8662 15.8362C17.9761 15.4106 18.2287 15.0356 18.5816 14.7737C18.9346 14.5117 19.3667 14.3787 19.8059 14.3967C19.8751 14.3993 19.9429 14.3763 19.9962 14.332C20.0495 14.2878 20.0845 14.2254 20.0947 14.1568C20.1048 14.0883 20.0893 14.0184 20.0511 13.9606C20.0129 13.9028 19.9547 13.8611 19.8877 13.8436Z" />
  <path
    d="M19.9386 3.64485C19.6812 3.82382 19.3703 3.9092 19.0576 3.88677C18.7449 3.86434 18.4494 3.73545 18.2202 3.52157C18.1694 3.47456 18.103 3.44795 18.0338 3.44681C17.9646 3.44568 17.8974 3.47012 17.845 3.51544C17.7927 3.56077 17.759 3.6238 17.7502 3.69247C17.7414 3.76113 17.7583 3.83062 17.7976 3.88762C17.9766 4.14499 18.0619 4.4559 18.0395 4.76857C18.0171 5.08123 17.8882 5.37677 17.6743 5.60596C17.6274 5.65678 17.6008 5.72313 17.5996 5.79232C17.5985 5.86152 17.623 5.92869 17.6683 5.981C17.7136 6.03331 17.7766 6.06708 17.8452 6.07585C17.9139 6.08462 17.9833 6.06778 18.0403 6.02854C18.2977 5.84962 18.6086 5.76426 18.9213 5.78669C19.234 5.80912 19.5295 5.93799 19.7587 6.15182C19.8095 6.1988 19.8759 6.22538 19.9451 6.2265C20.0143 6.22762 20.0814 6.20319 20.1337 6.15788C20.1861 6.11258 20.2198 6.04958 20.2286 5.98094C20.2374 5.91229 20.2205 5.84283 20.1813 5.78582C20.0023 5.52844 19.917 5.21752 19.9394 4.90485C19.9618 4.59218 20.0907 4.29663 20.3046 4.06743C20.3515 4.01662 20.3781 3.95026 20.3793 3.88107C20.3804 3.81188 20.3559 3.74471 20.3106 3.6924C20.2653 3.64009 20.2023 3.60632 20.1337 3.59755C20.065 3.58878 19.9956 3.60562 19.9386 3.64485Z" />
  <path
    d="M8.57184 4.7109C9.09696 5.00546 9.5053 5.47102 9.72887 6.03006C9.95244 6.5891 9.97773 7.20786 9.80053 7.78328C9.78042 7.84953 9.78544 7.92086 9.81465 7.98363C9.84386 8.0464 9.89519 8.09619 9.95882 8.12348C10.0224 8.15076 10.0939 8.15361 10.1595 8.13149C10.2251 8.10937 10.2803 8.06383 10.3144 8.00359C10.6089 7.47846 11.0745 7.07009 11.6335 6.84652C12.1926 6.62295 12.8113 6.59768 13.3867 6.7749C13.453 6.79502 13.5243 6.78999 13.5871 6.76078C13.6499 6.73157 13.6997 6.68024 13.7269 6.61661C13.7542 6.55298 13.7571 6.48153 13.735 6.41592C13.7128 6.35032 13.6673 6.29518 13.6071 6.26106C13.0819 5.96651 12.6736 5.50093 12.45 4.94189C12.2264 4.38284 12.2011 3.76407 12.3783 3.18864C12.3984 3.12239 12.3934 3.05105 12.3642 2.98828C12.335 2.92551 12.2837 2.87572 12.22 2.84844C12.1564 2.82116 12.0849 2.81831 12.0193 2.84043C11.9537 2.86255 11.8986 2.90809 11.8645 2.96833C11.5699 3.49344 11.1044 3.90179 10.5454 4.12536C9.98632 4.34893 9.36757 4.37422 8.79215 4.19701C8.72591 4.1769 8.65457 4.18193 8.5918 4.21114C8.52903 4.24034 8.47924 4.29167 8.45196 4.3553C8.42468 4.41893 8.42182 4.49039 8.44394 4.55599C8.46606 4.6216 8.5116 4.67678 8.57184 4.7109Z" />
</svg>
