<svg width="24" height="22" viewBox="0 0 24 22" xmlns="http://www.w3.org/2000/svg">
  <path
    d="M13.54 0.0137355C7.43108 -0.289188 2.35712 4.45661 2.0542 10.4646H0.766774C0.160928 10.4646 -0.192482 11.1209 0.110441 11.6258L2.78626 15.9929C3.08919 16.4726 3.79601 16.4726 4.09893 15.9929L6.77475 11.6258C7.07767 11.1209 6.72426 10.4646 6.11842 10.4646H4.65429C4.93197 5.94598 8.74375 2.38663 13.3633 2.58858C17.68 2.76529 21.2646 6.37512 21.3908 10.717C21.5423 15.4881 17.7052 19.4008 12.9847 19.4008C11.0662 19.4008 9.19814 18.7445 7.70876 17.5328C7.50681 17.3561 7.20389 17.3813 7.02719 17.5833L5.96696 18.7697C5.76501 18.9717 5.79025 19.3251 6.01744 19.5018C7.98644 21.1174 10.4351 22.0009 13.0099 22.0009C19.2198 22.0009 24.2433 16.826 23.9909 10.5403C23.7384 4.93624 19.1441 0.291415 13.54 0.0137355Z" />
  <path
    d="M13.5652 4.75952H12.4293C12.2021 4.75952 12.0254 4.93623 12.0254 5.16342V6.17316L11.8991 6.19841C10.4603 6.52657 9.501 7.86448 9.62722 9.35386C9.77868 10.8432 11.1166 12.0044 12.6565 12.0044H13.4138C13.6914 12.0044 13.9439 12.1307 14.1206 12.3326C14.2973 12.5345 14.3983 12.8122 14.373 13.0647C14.3225 13.5443 13.8681 13.9229 13.338 13.9229H12.3283C12.0506 13.9229 11.7982 13.721 11.7224 13.4433C11.672 13.2666 11.5205 13.1404 11.3185 13.1404H10.1573C10.0311 13.1404 9.93014 13.1909 9.85441 13.2666C9.77868 13.3423 9.75344 13.4686 9.75344 13.5695C9.87965 14.7055 10.7379 15.6395 11.8739 15.8415L11.9749 15.8667V16.8512C11.9749 17.0784 12.1516 17.2551 12.3788 17.2551H13.5147C13.7419 17.2551 13.9186 17.0784 13.9186 16.8512V15.791L14.0196 15.7657C15.2565 15.4628 16.1653 14.4278 16.2915 13.2161C16.3673 12.3831 16.0896 11.5753 15.5342 10.9442C14.9789 10.3384 14.1963 9.98495 13.3633 9.98495H12.4797C12.2021 9.98495 11.9496 9.85873 11.7729 9.65678C11.5962 9.45483 11.4952 9.17715 11.5205 8.89947C11.571 8.41984 12.0254 8.04119 12.5555 8.04119H13.5652C13.8429 8.04119 14.0953 8.24314 14.1711 8.52082C14.2216 8.69752 14.373 8.84898 14.575 8.84898H15.7362C15.8624 8.84898 15.9634 8.7985 16.0391 8.72277C16.1148 8.64704 16.1653 8.52082 16.1401 8.41984C16.0138 7.28388 15.1556 6.34987 14.0196 6.14792L13.9186 6.12268V5.13818C13.9691 4.93623 13.7924 4.75952 13.5652 4.75952Z" />
</svg>
