<svg width="24" height="24" viewBox="-1 -1 14 12" xmlns="http://www.w3.org/2000/svg">
  <path
    d="M8.70381 8.21251C7.94573 8.85687 6.9855 9.19801 6 9.19801C3.68786 9.19801 1.8053 7.31545 1.8053 5.00331V4.64954H2.47494C2.60129 4.64954 2.715 4.58637 2.76554 4.47266C2.82871 4.37158 2.81607 4.2326 2.7529 4.13152L1.67896 2.47639C1.55261 2.28687 1.23675 2.28687 1.12303 2.47639L0.0490911 4.13152C-0.0140821 4.24523 -0.0140821 4.37158 0.0364564 4.47266C0.0996296 4.57374 0.213341 4.64954 0.327053 4.64954H0.996688V5.00331C0.996688 7.75766 3.24565 10.0066 6 10.0066C7.18765 10.0066 8.32477 9.58968 9.23446 8.81897C9.39871 8.67999 9.42398 8.41466 9.285 8.25041C9.13339 8.08616 8.88069 8.06089 8.70381 8.21251Z" />
  <path
    d="M11.9635 5.53397C11.9003 5.43289 11.7866 5.35708 11.6729 5.35708H11.0033V5.00331C11.0033 2.24896 8.75432 0 5.99997 0C4.81232 0 3.6752 0.416943 2.76551 1.18765C2.58863 1.32664 2.57599 1.59196 2.71497 1.75621C2.85395 1.9331 3.11928 1.94573 3.28353 1.80675C4.04161 1.16239 5.00184 0.821251 5.98734 0.821251C8.29948 0.821251 10.182 2.70381 10.182 5.01595V5.36972H9.5124C9.38606 5.36972 9.27234 5.43289 9.22181 5.5466C9.15863 5.64768 9.17127 5.78666 9.23444 5.88774L10.321 7.53024C10.3842 7.63131 10.4853 7.68185 10.599 7.68185C10.7127 7.68185 10.8138 7.61868 10.8769 7.53024L11.9509 5.86247C12.0141 5.76139 12.0141 5.63504 11.9635 5.53397Z" />
  <path
    d="M6.0001 4.78853C6.69091 4.78853 7.25092 4.22851 7.25092 3.5377C7.25092 2.84688 6.69091 2.28687 6.0001 2.28687C5.30928 2.28687 4.74927 2.84688 4.74927 3.5377C4.74927 4.22851 5.30928 4.78853 6.0001 4.78853Z" />
  <path
    d="M3.92798 6.50683V7.08803C3.92798 7.16383 3.99115 7.21437 4.05432 7.21437H7.93316C8.00896 7.21437 8.0595 7.1512 8.0595 7.08803V6.50683C8.0595 5.78666 7.51621 5.19283 6.82131 5.09175C6.56862 5.23074 6.29065 5.30654 5.98742 5.30654C5.68419 5.30654 5.40623 5.23074 5.15354 5.09175C4.47127 5.1802 3.92798 5.77402 3.92798 6.50683Z" />
</svg>
