<svg width="24" height="24" viewBox="0 0 24 24" xmlns="http://www.w3.org/2000/svg">
<path fill-rule="evenodd" clip-rule="evenodd" d="M9.76974 9.83104C9.76974 10.3497 9.3501 10.7694 8.83615 10.7694C8.31749 10.7694 7.89784 10.3497 7.89784 9.83104C7.89784 8.69941 8.35521 7.67623 9.09548 6.93595C9.83576 6.19568 10.8589 5.73831 11.9906 5.73831C13.1222 5.73831 14.1454 6.19568 14.8857 6.93595C15.6259 7.67623 16.0833 8.69941 16.0833 9.83104C16.0833 10.9627 15.6259 11.9859 14.8857 12.7261C14.3576 13.2542 13.6833 13.6409 12.9289 13.8153V14.2208C12.9289 14.7395 12.5092 15.1591 11.9906 15.1591C11.4719 15.1591 11.0523 14.7395 11.0523 14.2208V12.9855C11.0523 12.4715 11.4719 12.0519 11.9906 12.0519C12.6035 12.0519 13.1599 11.802 13.5607 11.4012C13.9615 11.0004 14.2114 10.444 14.2114 9.83104C14.2114 9.21807 13.9615 8.66169 13.5607 8.2609C13.1599 7.86012 12.6035 7.61022 11.9906 7.61022C11.3776 7.61022 10.8212 7.86012 10.4204 8.2609C10.0196 8.66169 9.76974 9.21807 9.76974 9.83104ZM11.8963 18.257C11.3776 18.257 10.958 17.842 10.958 17.3234C10.958 16.8047 11.3776 16.3851 11.8963 16.3851H12.1037C12.6224 16.3851 13.042 16.8047 13.042 17.3234C13.042 17.842 12.6224 18.257 12.1037 18.257H11.8963ZM12 22.1234C14.7961 22.1234 17.3281 20.9917 19.1576 19.1576C20.9917 17.3281 22.1234 14.7961 22.1234 12C22.1234 9.20393 20.9917 6.67191 19.1576 4.83772C17.3281 3.00825 14.7961 1.87191 12 1.87191C9.20393 1.87191 6.67191 3.00825 4.83772 4.83772C3.00825 6.67191 1.87191 9.20393 1.87191 12C1.87191 14.7961 3.00825 17.3281 4.83772 19.1576C6.67191 20.9917 9.20393 22.1234 12 22.1234ZM20.4825 20.4825C18.3136 22.6562 15.31 24 12 24C8.68527 24 5.68644 22.6562 3.51277 20.4825C1.34381 18.3136 0 15.31 0 12C0 8.68527 1.34381 5.68644 3.51277 3.51277C5.68644 1.34381 8.68527 0 12 0C15.31 0 18.3136 1.34381 20.4825 3.51277C22.6562 5.68644 24 8.68527 24 12C24 15.31 22.6562 18.3136 20.4825 20.4825Z" fill="#535353"/>
</svg>
