<svg width="80" height="82" viewBox="0 0 80 82" xmlns="http://www.w3.org/2000/svg">
  <path
    d="M2.22199 70.3698C2.79088 70.3698 3.35976 70.153 3.79354 69.7192L10.4602 63.0525C11.3286 62.185 11.3286 60.7779 10.4602 59.9103C9.59263 59.0419 8.18463 59.0419 7.31797 59.9103L0.651331 66.577C-0.21711 67.4445 -0.21711 68.8516 0.651331 69.7192C1.08422 70.153 1.6531 70.3698 2.22199 70.3698Z" />
  <path
    d="M2.22199 79.9994C2.79088 79.9994 3.35976 79.7825 3.79354 79.3488L12.6824 70.4599C13.5508 69.5924 13.5508 68.1853 12.6824 67.3177C11.8148 66.4493 10.4068 66.4493 9.54018 67.3177L0.651331 76.2066C-0.21711 77.0741 -0.21711 78.4812 0.651331 79.3488C1.08422 79.7825 1.6531 79.9994 2.22199 79.9994Z" />
  <path
    d="M11.7616 80.8302C12.1954 81.264 12.7643 81.4809 13.3332 81.4809C13.9021 81.4809 14.471 81.264 14.9047 80.8302L21.5714 74.1636C22.4398 73.2961 22.4398 71.889 21.5714 71.0214C20.7038 70.153 19.2958 70.153 18.4292 71.0214L11.7625 77.688C10.8941 78.5547 10.8941 79.9627 11.7616 80.8302Z" />
  <path
    d="M77.7778 0C58.1059 0 39.9113 8.42663 27.1611 22.2221H2.22255C1.32389 22.2221 0.513224 22.7635 0.169225 23.5937C-0.174773 24.4239 0.0154478 25.3794 0.651001 26.015L15.0607 40.4247C13.5709 43.7047 12.3194 47.1269 11.347 50.6824C11.1363 51.4522 11.355 52.2753 11.9194 52.8398L27.1602 68.0797C27.5824 68.5028 28.1496 68.7304 28.7318 68.7304C28.9273 68.7304 29.1238 68.7046 29.3175 68.6522C32.8731 67.6797 36.2953 66.4282 39.5753 64.9384L53.985 79.3481C54.409 79.7739 54.9779 79.9997 55.5557 79.9997C55.8419 79.9997 56.1308 79.9445 56.4054 79.8308C57.2365 79.4868 57.7779 78.6761 57.7779 77.7774V52.8389C71.5734 40.0887 80 21.8941 80 2.22221C80 0.994662 79.0053 0 77.7778 0ZM29.3798 64.0148L15.9852 50.6202C21.4047 32.2514 34.634 17.6719 51.417 10.1155L69.8845 28.583C62.3281 45.3651 47.7486 58.5953 29.3798 64.0148ZM75.5165 4.48354C75.2765 11.3048 73.9538 17.9119 71.7023 24.1146L55.8854 8.29863C62.0881 6.04709 68.6952 4.72354 75.5165 4.48354ZM7.58786 26.6666H23.3913C21.0625 29.6576 18.9727 32.8523 17.1505 36.2283L7.58786 26.6666ZM53.3334 72.4121L43.7717 62.8504C47.1477 61.0282 50.3423 58.9384 53.3334 56.6095V72.4121Z" />
  <path
    d="M37.4567 41.7456C38.1189 41.7737 38.6846 41.114 38.7204 40.2722C38.7561 39.4303 38.2483 38.725 37.5861 38.6969C36.924 38.6688 36.3582 39.3285 36.3225 40.1704C36.2868 41.0123 36.7946 41.7175 37.4567 41.7456Z" />
  <path
    d="M44.6503 42.0509C45.3125 42.079 45.8782 41.4193 45.914 40.5774C45.9497 39.7356 45.4419 39.0303 44.7797 39.0022C44.1176 38.9741 43.5518 39.6338 43.5161 40.4757C43.4804 41.3176 43.9882 42.0228 44.6503 42.0509Z" />
  <path
    d="M35.8146 27.8428C35.5952 27.8648 35.3842 27.967 35.2066 28.1374L25.6838 37.0081C25.542 37.1391 25.4247 37.309 25.3407 37.5049C25.2567 37.7009 25.2081 37.9178 25.1987 38.1392C25.1893 38.3606 25.2193 38.5809 25.2864 38.7832C25.3536 38.9856 25.4561 39.1648 25.5862 39.3074L34.3232 48.953C34.4358 49.0788 34.5673 49.1744 34.71 49.2342C34.8527 49.2941 35.0038 49.317 35.1546 49.3018C35.3055 49.2865 35.4532 49.2333 35.5892 49.1453C35.7251 49.0573 35.8468 48.9361 35.9471 48.7888C36.0474 48.6415 36.1244 48.4708 36.1737 48.2867C36.223 48.1026 36.2436 47.9086 36.2343 47.7159C36.225 47.5231 36.1861 47.3355 36.1197 47.1636C36.0533 46.9917 35.9607 46.839 35.8473 46.7142L28.1906 38.2738L36.5356 30.4972C36.7455 30.3119 36.9029 30.0442 36.9835 29.7358C37.064 29.4274 37.063 29.0958 36.9807 28.7926C36.8983 28.4894 36.7392 28.2318 36.5283 28.06C36.3173 27.8882 36.0664 27.8118 35.8146 27.8428ZM47.2031 28.3261C46.9742 28.347 46.754 28.4554 46.5711 28.6372C46.3882 28.8189 46.2511 29.0658 46.1776 29.3456C46.1041 29.6254 46.0976 29.9252 46.1589 30.2061C46.2202 30.4871 46.3465 30.7362 46.5214 30.921L54.1774 39.3767L45.8331 47.1381C45.7096 47.2527 45.6044 47.397 45.5237 47.5627C45.4429 47.7283 45.3882 47.912 45.3626 48.1033C45.3371 48.2945 45.3412 48.4896 45.3747 48.6772C45.4082 48.8649 45.4704 49.0414 45.5579 49.1967C45.6454 49.352 45.7563 49.483 45.8843 49.5823C46.0124 49.6815 46.155 49.747 46.3041 49.775C46.4531 49.8029 46.6056 49.7929 46.7528 49.7453C46.9001 49.6978 47.0392 49.6137 47.1621 49.4979L56.6849 40.6272C56.8266 40.4962 56.9439 40.3263 57.028 40.1303C57.112 39.9344 57.1605 39.7175 57.1699 39.4961C57.1793 39.2746 57.1493 39.0544 57.0822 38.852C57.0151 38.6497 56.9126 38.4705 56.7825 38.3279L48.0455 28.6822C47.9322 28.5531 47.7992 28.455 47.6544 28.3938C47.5097 28.3326 47.3562 28.3096 47.2031 28.3261Z" />
</svg>
