<svg width="22" height="22" viewBox="0 0 22 22" xmlns="http://www.w3.org/2000/svg">
  <path
    d="M0.59994 18.9999C0.75354 18.9999 0.90714 18.9414 1.02426 18.8243L2.82426 17.0243C3.05874 16.79 3.05874 16.4101 2.82426 16.1759C2.59002 15.9414 2.20986 15.9414 1.97586 16.1759L0.17586 17.9759C-0.05862 18.2101 -0.05862 18.59 0.17586 18.8243C0.29274 18.9414 0.44634 18.9999 0.59994 18.9999Z" />
  <path
    d="M0.59994 21.5999C0.75354 21.5999 0.90714 21.5414 1.02426 21.4243L3.42426 19.0243C3.65874 18.79 3.65874 18.4101 3.42426 18.1759C3.19002 17.9414 2.80986 17.9414 2.57586 18.1759L0.17586 20.5759C-0.05862 20.8101 -0.05862 21.19 0.17586 21.4243C0.29274 21.5414 0.44634 21.5999 0.59994 21.5999Z" />
  <path
    d="M3.17565 21.8243C3.29277 21.9414 3.44637 21.9999 3.59997 21.9999C3.75357 21.9999 3.90717 21.9414 4.02429 21.8243L5.82429 20.0243C6.05877 19.79 6.05877 19.4101 5.82429 19.1759C5.59005 18.9414 5.20989 18.9414 4.97589 19.1759L3.17589 20.9759C2.94141 21.2099 2.94141 21.59 3.17565 21.8243Z" />
  <path
    d="M11 8C9.34568 8 8 9.34568 8 11C8 12.6543 9.34568 14 11 14C12.6543 14 14 12.6543 14 11C14 9.34568 12.6543 8 11 8ZM11 12.8C10.0074 12.8 9.2 11.9926 9.2 11C9.2 10.0074 10.0074 9.2 11 9.2C11.9926 9.2 12.8 10.0074 12.8 11C12.8 11.9926 11.9926 12.8 11 12.8Z" />
  <path
    d="M21.0001 0C15.6887 0 10.7761 2.2752 7.33353 6H0.600091C0.357451 6 0.138571 6.14616 0.045691 6.37032C-0.047189 6.59448 0.00417093 6.85248 0.175771 7.02408L4.06641 10.9147C3.66417 11.8003 3.32625 12.7243 3.06369 13.6843C3.00681 13.8922 3.06585 14.1144 3.21825 14.2668L7.33329 18.3816C7.44729 18.4958 7.60041 18.5573 7.75761 18.5573C7.81041 18.5573 7.86345 18.5503 7.91577 18.5362C8.87577 18.2736 9.79977 17.9357 10.6854 17.5334L14.576 21.4241C14.6905 21.539 14.8441 21.6 15.0001 21.6C15.0774 21.6 15.1554 21.5851 15.2295 21.5544C15.4539 21.4615 15.6001 21.2426 15.6001 21V14.2666C19.3249 10.824 21.6001 5.91144 21.6001 0.6C21.6001 0.26856 21.3315 0 21.0001 0ZM7.93257 17.2841L4.31601 13.6675C5.77929 8.70792 9.35121 4.77144 13.8827 2.7312L18.8689 7.71744C16.8287 12.2486 12.8922 15.8208 7.93257 17.2841ZM20.3895 1.21056C20.3247 3.05232 19.9676 4.83624 19.3597 6.51096L15.0891 2.24064C16.7639 1.63272 18.5478 1.27536 20.3895 1.21056ZM2.04873 7.2H6.31569C5.68689 8.0076 5.12265 8.87016 4.63065 9.78168L2.04873 7.2ZM14.4001 19.5514L11.8184 16.9697C12.7299 16.4777 13.5925 15.9134 14.4001 15.2846V19.5514Z" />
</svg>
