<svg width="24" height="24" viewBox="0 0 24 24" xmlns="http://www.w3.org/2000/svg">
  <path
    d="M11.2503 19.4051V23.2501C11.2503 23.6644 11.5857 23.9998 12 23.9998C12.4143 23.9998 12.7498 23.6644 12.7498 23.2501V19.4051C14.0425 19.0713 14.9998 17.8957 14.9998 16.5C14.9998 15.1043 14.0425 13.9286 12.7498 13.5949V0.749735C12.7498 0.33543 12.4143 0 12 0C11.5857 0 11.2503 0.33543 11.2503 0.749735V13.5949C9.95755 13.9286 9.00024 15.1043 9.00024 16.5C9.00024 17.8957 9.95755 19.0713 11.2503 19.4051ZM12 14.9997C12.827 14.9997 13.5003 15.6722 13.5003 16.5C13.5003 17.3278 12.8278 18.0003 12 18.0003C11.1722 18.0003 10.4997 17.3278 10.4997 16.5C10.4997 15.6722 11.1731 14.9997 12 14.9997Z" />
  <path
    d="M20.2505 10.405V23.2501C20.2505 23.6644 20.586 23.9998 21.0003 23.9998C21.4146 23.9998 21.75 23.6644 21.75 23.2501V10.405C23.0427 10.0712 24 8.89553 24 7.49985C24 6.10416 23.0427 4.92849 21.75 4.59472V0.749735C21.75 0.33543 21.4146 0 21.0003 0C20.586 0 20.2505 0.33543 20.2505 0.749735V4.59472C18.9578 4.92849 18.0005 6.10416 18.0005 7.49985C18.0005 8.89553 18.9578 10.0712 20.2505 10.405ZM21.0003 5.99954C21.8272 5.99954 22.5006 6.67206 22.5006 7.49985C22.5006 8.32763 21.828 9.00014 21.0003 9.00014C20.1725 9.00014 19.5 8.32763 19.5 7.49985C19.5 6.67206 20.1733 5.99954 21.0003 5.99954Z" />
  <path
    d="M2.25004 14.905V23.2501C2.25004 23.6644 2.58547 23.9998 2.99977 23.9998C3.41408 23.9998 3.74951 23.6644 3.74951 23.2501V14.905C5.04224 14.5713 5.99954 13.3956 5.99954 11.9999C5.99954 10.6042 5.04224 9.42857 3.74951 9.0948V0.749735C3.74951 0.33543 3.41408 0 2.99977 0C2.58547 0 2.25004 0.33543 2.25004 0.749735V9.0948C0.957304 9.42857 0 10.6042 0 11.9999C0 13.3956 0.957304 14.5713 2.25004 14.905ZM2.99977 10.4996C3.82672 10.4996 4.50007 11.1721 4.50007 11.9999C4.50007 12.8277 3.82755 13.5002 2.99977 13.5002C2.17199 13.5002 1.49947 12.8277 1.49947 11.9999C1.49947 11.1721 2.17282 10.4996 2.99977 10.4996Z" />
</svg>
