<?xml version="1.0" standalone="no"?>
<!DOCTYPE svg PUBLIC "-//W3C//DTD SVG 20010904//EN"
 "http://www.w3.org/TR/2001/REC-SVG-20010904/DTD/svg10.dtd">
<svg version="1.0" xmlns="http://www.w3.org/2000/svg"
 width="1280.000000pt" height="1280.000000pt" viewBox="0 0 1280.000000 1280.000000"
 preserveAspectRatio="xMidYMid meet">
<metadata>
Created by potrace 1.14, written by Peter Selinger 2001-2017
</metadata>
<g transform="translate(0.000000,1280.000000) scale(0.100000,-0.100000)"
fill="#000000" stroke="none">
<path d="M4128 9795 c-2 -2 -28 -5 -59 -9 -109 -10 -190 -54 -351 -187 -29
-24 -57 -47 -63 -51 -39 -29 -141 -114 -143 -120 -2 -5 -8 -8 -13 -8 -5 0 -19
-9 -31 -19 -13 -11 -66 -54 -118 -96 -52 -41 -102 -81 -110 -88 -8 -7 -80 -64
-160 -127 -176 -140 -179 -142 -194 -155 -6 -6 -42 -35 -81 -65 -38 -30 -72
-57 -75 -60 -3 -3 -25 -21 -50 -40 -25 -19 -52 -40 -60 -47 -8 -7 -44 -35 -80
-64 -36 -28 -76 -61 -90 -73 -14 -12 -43 -35 -65 -51 -22 -17 -42 -32 -45 -35
-3 -3 -25 -21 -50 -40 -25 -19 -49 -38 -55 -43 -5 -4 -22 -17 -36 -30 -14 -12
-38 -31 -53 -42 -16 -11 -36 -27 -45 -36 -9 -8 -36 -30 -61 -49 -25 -18 -49
-38 -55 -44 -5 -6 -39 -33 -75 -61 -36 -27 -69 -53 -75 -57 -5 -5 -28 -24 -50
-43 -22 -19 -43 -35 -47 -35 -4 0 -13 -6 -20 -13 -12 -11 -119 -99 -158 -130
-149 -117 -206 -163 -210 -167 -3 -3 -59 -48 -125 -100 -66 -52 -129 -102
-140 -112 -17 -15 -91 -73 -120 -96 -24 -18 -110 -87 -115 -92 -3 -3 -25 -21
-50 -40 -25 -19 -46 -38 -48 -42 -2 -5 -8 -8 -14 -8 -6 0 -16 -6 -22 -13 -6
-7 -62 -53 -125 -103 -62 -49 -141 -112 -175 -139 -33 -28 -104 -84 -156 -125
-52 -40 -114 -94 -138 -119 -42 -44 -96 -140 -108 -191 -11 -48 -13 -188 -3
-222 6 -18 11 -37 13 -43 7 -31 31 -85 37 -85 4 0 10 -8 13 -18 8 -24 81 -101
136 -143 25 -18 52 -41 61 -51 9 -10 19 -18 23 -18 4 0 46 -33 95 -72 48 -40
159 -129 246 -197 86 -69 162 -130 169 -136 6 -6 29 -25 51 -41 22 -16 49 -37
60 -46 26 -22 118 -96 512 -409 372 -296 391 -311 447 -357 23 -18 48 -39 56
-45 9 -7 38 -30 65 -52 28 -22 55 -43 60 -48 6 -4 20 -15 31 -25 12 -9 34 -27
50 -39 22 -17 611 -486 659 -525 6 -4 51 -41 100 -80 50 -40 95 -76 100 -81 6
-4 62 -48 125 -98 63 -50 121 -98 128 -107 6 -9 12 -13 12 -9 0 4 10 -2 23
-13 19 -17 64 -54 127 -103 69 -54 117 -92 125 -101 6 -6 18 -15 27 -21 8 -5
77 -59 152 -120 132 -107 229 -167 291 -181 17 -4 64 -8 105 -9 129 -3 239 42
331 135 128 130 167 314 103 488 -14 39 -30 72 -35 72 -5 0 -9 6 -9 13 0 22
-79 99 -195 191 -60 48 -117 93 -125 99 -8 7 -64 52 -125 100 -60 49 -117 94
-125 100 -8 7 -33 26 -55 42 -21 17 -46 37 -55 45 -9 8 -31 26 -50 40 -18 14
-38 30 -44 35 -6 6 -31 26 -56 45 -25 19 -47 37 -50 40 -3 3 -23 18 -45 35
-22 16 -45 34 -51 40 -6 5 -28 24 -49 40 -34 27 -121 96 -169 135 -10 8 -24
21 -31 28 -8 6 -16 12 -20 12 -4 0 -12 6 -19 13 -19 18 -76 63 -206 167 -63
50 -122 96 -130 103 -8 7 -49 39 -90 72 -41 33 -80 64 -87 70 -6 5 -26 21 -44
35 -18 14 -92 72 -164 130 -72 58 -149 119 -170 135 -52 42 -654 520 -685 545
-52 42 -158 126 -194 155 -21 17 -48 38 -60 47 -11 10 -25 21 -31 25 -5 5 -47
37 -93 73 l-83 65 29 25 c16 14 46 39 67 55 108 83 250 200 253 207 2 4 8 8
13 8 5 0 22 11 37 24 15 13 133 108 262 211 129 102 244 194 255 203 11 9 40
33 65 52 25 19 54 42 65 52 18 15 95 76 120 96 53 42 287 228 310 248 17 14
35 28 40 32 6 4 43 34 84 67 69 57 107 86 175 138 36 28 67 53 86 70 8 7 35
29 60 48 25 19 47 37 50 40 3 3 48 39 100 80 106 83 127 99 144 114 6 6 121
98 256 205 135 107 250 199 257 205 6 5 26 21 44 35 18 14 80 63 139 110 58
47 123 99 144 115 21 17 44 35 50 40 6 6 40 33 76 62 64 50 120 106 120 120 0
3 6 14 14 22 48 53 83 239 63 327 -11 45 -31 109 -37 114 -3 3 -12 19 -20 35
-15 31 -140 165 -140 150 0 -4 -8 -1 -17 8 -26 23 -115 55 -178 65 -30 5 -56
8 -57 7z"/>
<path d="M8570 9779 c-57 -16 -120 -43 -120 -51 0 -5 -7 -8 -15 -8 -8 0 -43
-28 -78 -63 -75 -75 -110 -141 -133 -252 -8 -37 -5 -140 5 -172 5 -18 7 -33 3
-33 -3 0 -1 -5 6 -12 7 -7 12 -20 12 -30 0 -10 5 -18 10 -18 6 0 10 -9 10 -20
0 -11 4 -20 9 -20 5 0 13 -10 17 -22 11 -36 80 -98 294 -268 113 -89 214 -170
226 -179 11 -10 65 -53 120 -96 54 -43 104 -84 110 -91 6 -8 14 -14 19 -14 4
0 32 -21 63 -47 31 -27 63 -53 72 -60 52 -41 298 -237 315 -251 11 -9 63 -51
115 -92 52 -41 102 -80 110 -87 8 -7 53 -43 100 -80 47 -37 90 -72 97 -78 6
-5 26 -21 44 -35 25 -19 792 -630 869 -693 8 -7 35 -28 60 -47 25 -19 47 -37
50 -41 3 -3 27 -22 53 -42 26 -20 54 -42 61 -49 8 -7 26 -22 42 -33 15 -11 32
-25 38 -30 17 -15 68 -57 106 -85 29 -22 89 -70 194 -156 16 -13 43 -34 59
-46 16 -13 43 -34 59 -48 l28 -25 -96 -75 c-89 -70 -106 -83 -159 -128 -11 -9
-38 -30 -60 -47 -22 -16 -49 -37 -60 -47 -18 -15 -184 -147 -281 -223 -51 -41
-204 -163 -229 -183 -11 -10 -52 -42 -90 -72 -39 -30 -75 -59 -81 -65 -6 -5
-23 -19 -38 -30 -15 -11 -37 -28 -49 -38 -12 -10 -37 -31 -56 -45 -19 -15 -50
-40 -71 -57 -20 -16 -49 -39 -64 -50 -15 -11 -38 -29 -50 -40 -12 -11 -35 -29
-50 -40 -16 -11 -36 -27 -45 -36 -9 -9 -70 -58 -136 -110 -256 -201 -431 -339
-450 -357 -11 -10 -63 -52 -115 -92 -52 -41 -97 -77 -100 -80 -3 -3 -23 -19
-45 -35 -22 -17 -42 -32 -45 -35 -3 -4 -61 -51 -130 -105 -69 -54 -159 -126
-200 -159 -41 -33 -79 -64 -85 -68 -5 -4 -51 -40 -101 -80 -50 -40 -106 -84
-124 -98 -18 -14 -38 -30 -44 -35 -6 -6 -51 -43 -101 -83 -49 -39 -94 -77
-100 -84 -67 -85 -89 -127 -108 -213 -24 -106 -7 -234 42 -315 11 -19 24 -42
28 -50 26 -55 132 -136 225 -172 65 -26 190 -31 267 -11 58 15 135 54 174 87
42 35 60 50 107 85 25 19 50 39 55 46 6 6 31 26 58 45 26 18 47 37 47 41 0 4
8 10 18 13 9 3 28 16 42 29 14 13 70 58 125 101 55 44 105 85 111 92 6 8 15
14 19 14 4 0 17 9 29 20 11 11 50 42 86 71 36 28 81 63 100 79 19 16 53 42 75
60 22 17 54 42 70 55 17 14 84 68 150 121 66 53 129 103 140 112 11 10 94 75
185 147 91 71 217 171 280 222 63 51 120 96 125 100 10 8 151 120 172 138 7 6
18 15 25 20 93 72 254 201 258 205 3 3 34 28 70 55 36 28 70 55 75 61 6 6 87
71 180 144 94 74 171 138 173 142 2 4 8 8 14 8 6 0 16 6 22 14 6 7 67 58 136
112 69 54 127 101 128 106 2 4 8 8 13 8 5 0 17 8 27 18 10 9 31 26 46 37 16
11 34 26 41 33 8 6 83 67 167 133 84 67 155 125 158 129 3 4 12 11 21 16 61
34 194 165 221 218 72 142 75 305 6 438 -26 50 -126 168 -142 168 -3 0 -19 11
-34 24 -15 13 -67 56 -117 95 -49 39 -103 82 -120 95 -16 13 -61 49 -100 80
-38 31 -81 66 -94 77 -14 12 -41 33 -60 47 -20 15 -38 29 -41 32 -3 4 -23 19
-45 35 -22 17 -42 32 -45 35 -3 3 -171 138 -375 300 -203 162 -377 300 -385
307 -8 7 -67 54 -130 104 -63 51 -117 95 -120 98 -3 3 -32 26 -65 50 -33 25
-62 47 -65 50 -3 4 -39 33 -80 66 -41 32 -77 62 -80 65 -3 3 -21 17 -40 30
-19 13 -41 30 -48 37 -8 7 -30 26 -50 41 -21 15 -39 29 -42 32 -3 4 -39 33
-80 65 -41 33 -77 62 -80 65 -3 3 -25 21 -50 40 -25 19 -46 38 -48 42 -2 5
-10 8 -17 8 -7 0 -15 4 -17 9 -1 5 -77 67 -168 139 -91 72 -169 135 -175 139
-5 5 -44 35 -85 68 -41 33 -84 68 -95 77 -11 9 -72 58 -135 108 -63 50 -122
97 -130 104 -9 7 -38 30 -66 52 -27 21 -56 45 -64 51 -8 7 -35 29 -60 49 -60
47 -64 51 -145 114 -39 30 -78 62 -88 72 -19 16 -126 76 -139 77 -5 1 -9 1
-10 2 -53 16 -203 21 -248 8z"/>
<path d="M4858 6388 c-28 -6 -48 -16 -48 -23 0 -8 -4 -17 -10 -20 -6 -3 -7 1
-4 10 6 15 3 15 -32 0 -22 -9 -45 -19 -51 -22 -7 -3 -10 -9 -7 -14 3 -5 -1 -9
-8 -9 -20 0 -89 -60 -82 -71 3 -5 1 -8 -4 -7 -15 4 -53 -44 -47 -59 2 -8 1
-12 -4 -9 -5 3 -14 -1 -21 -9 -9 -10 -9 -15 -1 -15 6 0 2 -9 -9 -20 -11 -11
-21 -27 -21 -35 -2 -24 -4 -29 -12 -42 -5 -8 -3 -13 5 -13 10 -1 9 -4 -2 -13
-8 -7 -15 -27 -14 -44 0 -18 -5 -33 -10 -34 -6 0 -2 -4 9 -9 11 -5 14 -9 7 -9
-7 -1 -10 -6 -7 -11 4 -6 11 -7 17 -4 7 4 8 2 4 -5 -4 -6 -12 -9 -17 -6 -17
11 -9 -17 9 -32 9 -8 12 -12 6 -9 -14 7 -26 -31 -13 -40 5 -3 9 -12 9 -20 0
-27 50 -125 60 -119 5 3 7 0 4 -8 -3 -8 6 -26 20 -40 14 -14 22 -28 19 -31 -4
-3 -1 -6 6 -6 16 0 42 -26 34 -34 -4 -3 1 -6 10 -6 10 0 25 -9 34 -20 10 -11
26 -20 36 -20 11 0 15 -4 11 -12 -5 -8 0 -9 14 -6 15 4 22 2 22 -8 0 -8 10
-14 24 -14 13 0 39 -6 57 -13 21 -9 66 -13 119 -11 90 3 108 5 128 17 6 5 12
6 12 2 0 -3 20 6 45 19 25 14 45 23 45 19 0 -3 9 4 20 17 11 13 20 20 20 16 0
-5 16 8 36 28 20 20 40 36 45 36 5 0 9 5 9 10 0 12 41 73 53 78 4 2 7 12 7 22
0 10 5 22 10 25 8 5 7 11 -1 21 -10 12 -9 13 4 8 11 -4 15 0 12 13 -1 10 -8
17 -15 15 -6 -1 -9 2 -5 7 3 6 12 8 19 5 9 -3 15 5 18 26 7 46 1 186 -8 201
-7 12 -11 26 -16 66 -1 7 -5 10 -10 7 -4 -3 -8 2 -8 10 0 35 -66 129 -84 119
-6 -3 -8 -2 -3 2 9 11 -23 46 -35 39 -4 -3 -7 0 -6 6 2 7 -6 17 -17 23 -11 7
-22 15 -25 18 -10 12 -70 39 -70 32 0 -5 -4 -2 -9 5 -4 7 -18 14 -29 15 -12 1
-22 4 -22 8 0 3 -18 6 -39 5 -22 -1 -38 1 -35 5 2 4 -14 6 -36 6 -32 -1 -40
-4 -35 -16 4 -12 2 -12 -9 2 -7 9 -17 16 -22 16 -5 -1 -30 -6 -56 -11z m52
-42 c0 -3 -4 -8 -10 -11 -5 -3 -10 -1 -10 4 0 6 5 11 10 11 6 0 10 -2 10 -4z
m40 -6 c0 -5 -2 -10 -4 -10 -3 0 -8 5 -11 10 -3 6 -1 10 4 10 6 0 11 -4 11
-10z m-140 -20 c0 -5 -5 -10 -11 -10 -5 0 -7 5 -4 10 3 6 8 10 11 10 2 0 4 -4
4 -10z m360 0 c0 -5 -5 -10 -11 -10 -5 0 -7 5 -4 10 3 6 8 10 11 10 2 0 4 -4
4 -10z m34 -6 c3 -8 2 -12 -4 -9 -6 3 -10 10 -10 16 0 14 7 11 14 -7z m-214
-8 c0 -3 -4 -8 -10 -11 -5 -3 -10 -1 -10 4 0 6 5 11 10 11 6 0 10 -2 10 -4z
m-263 -21 c0 -8 -4 -12 -9 -9 -5 3 -6 10 -3 15 9 13 12 11 12 -6z m43 1 c0 -3
-4 -8 -10 -11 -5 -3 -10 -1 -10 4 0 6 5 11 10 11 6 0 10 -2 10 -4z m34 -12 c3
-8 2 -12 -4 -9 -6 3 -10 10 -10 16 0 14 7 11 14 -7z m366 6 c0 -5 -5 -10 -11
-10 -5 0 -7 5 -4 10 3 6 8 10 11 10 2 0 4 -4 4 -10z m-180 -20 c0 -5 -2 -10
-4 -10 -3 0 -8 5 -11 10 -3 6 -1 10 4 10 6 0 11 -4 11 -10z m40 0 c0 -5 -2
-10 -4 -10 -3 0 -8 5 -11 10 -3 6 -1 10 4 10 6 0 11 -4 11 -10z m-336 -18 c3
-5 -1 -9 -9 -9 -8 0 -15 4 -15 9 0 4 4 8 9 8 6 0 12 -4 15 -8z m486 2 c0 -8
-19 -13 -24 -6 -3 5 1 9 9 9 8 0 15 -2 15 -3z m-310 -18 c0 -3 -4 -8 -10 -11
-5 -3 -10 -1 -10 4 0 6 5 11 10 11 6 0 10 -2 10 -4z m40 0 c0 -3 -4 -8 -10
-11 -5 -3 -10 -1 -10 4 0 6 5 11 10 11 6 0 10 -2 10 -4z m195 -6 c3 -5 1 -10
-4 -10 -6 0 -11 5 -11 10 0 6 2 10 4 10 3 0 8 -4 11 -10z m-415 -20 c0 -5 -2
-10 -4 -10 -3 0 -8 5 -11 10 -3 6 -1 10 4 10 6 0 11 -4 11 -10z m220 -20 c0
-5 -2 -10 -4 -10 -3 0 -8 5 -11 10 -3 6 -1 10 4 10 6 0 11 -4 11 -10z m40 0
c0 -5 -2 -10 -4 -10 -3 0 -8 5 -11 10 -3 6 -1 10 4 10 6 0 11 -4 11 -10z m160
0 c0 -5 -5 -10 -11 -10 -5 0 -7 5 -4 10 3 6 8 10 11 10 2 0 4 -4 4 -10z m225
0 c-3 -5 -12 -10 -18 -10 -7 0 -6 4 3 10 19 12 23 12 15 0z m-670 -40 c3 -5 1
-10 -4 -10 -6 0 -11 5 -11 10 0 6 2 10 4 10 3 0 8 -4 11 -10z m40 0 c3 -5 1
-10 -4 -10 -6 0 -11 5 -11 10 0 6 2 10 4 10 3 0 8 -4 11 -10z m405 6 c0 -3 -4
-8 -10 -11 -5 -3 -10 -1 -10 4 0 6 5 11 10 11 6 0 10 -2 10 -4z m160 -6 c0 -5
-2 -10 -4 -10 -3 0 -8 5 -11 10 -3 6 -1 10 4 10 6 0 11 -4 11 -10z m-303 -15
c0 -8 -4 -12 -9 -9 -5 3 -6 10 -3 15 9 13 12 11 12 -6z m-42 -5 c3 -5 1 -10
-4 -10 -6 0 -11 5 -11 10 0 6 2 10 4 10 3 0 8 -4 11 -10z m85 4 c0 -8 -19 -13
-24 -6 -3 5 1 9 9 9 8 0 15 -2 15 -3z m-300 -24 c0 -5 -5 -10 -11 -10 -5 0 -7
5 -4 10 3 6 8 10 11 10 2 0 4 -4 4 -10z m40 0 c0 -5 -5 -10 -11 -10 -5 0 -7 5
-4 10 3 6 8 10 11 10 2 0 4 -4 4 -10z m480 6 c0 -3 -4 -8 -10 -11 -5 -3 -10
-1 -10 4 0 6 5 11 10 11 6 0 10 -2 10 -4z m40 0 c0 -3 -4 -8 -10 -11 -5 -3
-10 -1 -10 4 0 6 5 11 10 11 6 0 10 -2 10 -4z m-340 -22 c0 -8 -19 -13 -24 -6
-3 5 1 9 9 9 8 0 15 -2 15 -3z m395 -12 c-3 -3 -11 0 -18 7 -9 10 -8 11 6 5
10 -3 15 -9 12 -12z m-655 -12 c0 -5 -5 -10 -11 -10 -5 0 -7 5 -4 10 3 6 8 10
11 10 2 0 4 -4 4 -10z m40 6 c0 -3 -4 -8 -10 -11 -5 -3 -10 -1 -10 4 0 6 5 11
10 11 6 0 10 -2 10 -4z m35 -6 c3 -5 1 -10 -4 -10 -6 0 -11 5 -11 10 0 6 2 10
4 10 3 0 8 -4 11 -10z m480 0 c3 -5 1 -10 -4 -10 -6 0 -11 5 -11 10 0 6 2 10
4 10 3 0 8 -4 11 -10z m45 0 c0 -5 -5 -10 -11 -10 -5 0 -7 5 -4 10 3 6 8 10
11 10 2 0 4 -4 4 -10z m-340 -16 c0 -8 -19 -13 -24 -6 -3 5 1 9 9 9 8 0 15 -2
15 -3z m40 -2 c0 -5 -7 -9 -15 -9 -8 0 -12 4 -9 9 3 4 9 8 15 8 5 0 9 -4 9 -8z
m40 -2 c0 -5 -2 -10 -4 -10 -3 0 -8 5 -11 10 -3 6 -1 10 4 10 6 0 11 -4 11
-10z m320 0 c0 -5 -5 -10 -11 -10 -5 0 -7 5 -4 10 3 6 8 10 11 10 2 0 4 -4 4
-10z m-780 -20 c0 -5 -2 -10 -4 -10 -3 0 -8 5 -11 10 -3 6 -1 10 4 10 6 0 11
-4 11 -10z m200 0 c0 -5 -2 -10 -4 -10 -3 0 -8 5 -11 10 -3 6 -1 10 4 10 6 0
11 -4 11 -10z m475 0 c3 -5 1 -10 -4 -10 -6 0 -11 5 -11 10 0 6 2 10 4 10 3 0
8 -4 11 -10z m45 0 c0 -5 -5 -10 -11 -10 -5 0 -7 5 -4 10 3 6 8 10 11 10 2 0
4 -4 4 -10z m-300 -20 c0 -5 -4 -10 -10 -10 -5 0 -10 5 -10 10 0 6 5 10 10 10
6 0 10 -4 10 -10z m391 -13 c-10 -9 -11 -8 -5 6 3 10 9 15 12 12 3 -3 0 -11
-7 -18z m-596 -26 c3 -5 2 -12 -3 -15 -5 -3 -9 1 -9 9 0 17 3 19 12 6z m159 1
c3 -5 -1 -9 -9 -9 -8 0 -12 4 -9 9 3 4 7 8 9 8 2 0 6 -4 9 -8z m50 -4 c-3 -4
-9 -8 -15 -8 -5 0 -9 4 -9 8 0 5 7 9 15 9 8 0 12 -4 9 -9z m40 4 c3 -5 -1 -9
-9 -9 -8 0 -12 4 -9 9 3 4 7 8 9 8 2 0 6 -4 9 -8z m347 -15 c-10 -9 -11 -8 -5
6 3 10 9 15 12 12 3 -3 0 -11 -7 -18z m49 13 c0 -5 -2 -10 -4 -10 -3 0 -8 5
-11 10 -3 6 -1 10 4 10 6 0 11 -4 11 -10z m-640 -36 c0 -8 -19 -13 -24 -6 -3
5 1 9 9 9 8 0 15 -2 15 -3z m-220 -18 c0 -3 -4 -8 -10 -11 -5 -3 -10 -1 -10 4
0 6 5 11 10 11 6 0 10 -2 10 -4z m224 -24 c3 -5 -1 -9 -9 -9 -8 0 -12 4 -9 9
3 4 7 8 9 8 2 0 6 -4 9 -8z m160 0 c3 -5 -1 -9 -9 -9 -8 0 -12 4 -9 9 3 4 7 8
9 8 2 0 6 -4 9 -8z m71 -2 c3 -5 1 -10 -4 -10 -6 0 -11 5 -11 10 0 6 2 10 4
10 3 0 8 -4 11 -10z m165 6 c0 -3 -4 -8 -10 -11 -5 -3 -10 -1 -10 4 0 6 5 11
10 11 6 0 10 -2 10 -4z m-625 -26 c3 -5 1 -10 -4 -10 -6 0 -11 5 -11 10 0 6 2
10 4 10 3 0 8 -4 11 -10z m125 0 c0 -5 -5 -10 -11 -10 -5 0 -7 5 -4 10 3 6 8
10 11 10 2 0 4 -4 4 -10z m40 6 c0 -3 -4 -8 -10 -11 -5 -3 -10 -1 -10 4 0 6 5
11 10 11 6 0 10 -2 10 -4z m120 -6 c0 -5 -5 -10 -11 -10 -5 0 -7 5 -4 10 3 6
8 10 11 10 2 0 4 -4 4 -10z m240 0 c0 -5 -2 -10 -4 -10 -3 0 -8 5 -11 10 -3 6
-1 10 4 10 6 0 11 -4 11 -10z m35 0 c3 -5 1 -10 -4 -10 -6 0 -11 5 -11 10 0 6
2 10 4 10 3 0 8 -4 11 -10z m285 6 c0 -3 -4 -8 -10 -11 -5 -3 -10 -1 -10 4 0
6 5 11 10 11 6 0 10 -2 10 -4z m-725 -46 c3 -5 1 -10 -4 -10 -6 0 -11 5 -11
10 0 6 2 10 4 10 3 0 8 -4 11 -10z m160 0 c3 -5 1 -10 -4 -10 -6 0 -11 5 -11
10 0 6 2 10 4 10 3 0 8 -4 11 -10z m285 0 c0 -5 -5 -10 -11 -10 -5 0 -7 5 -4
10 3 6 8 10 11 10 2 0 4 -4 4 -10z m35 0 c3 -5 1 -10 -4 -10 -6 0 -11 5 -11
10 0 6 2 10 4 10 3 0 8 -4 11 -10z m45 0 c0 -5 -5 -10 -11 -10 -5 0 -7 5 -4
10 3 6 8 10 11 10 2 0 4 -4 4 -10z m-665 -9 c3 -5 2 -12 -3 -15 -5 -3 -9 1 -9
9 0 17 3 19 12 6z m82 -6 c0 -8 -4 -12 -9 -9 -5 3 -6 10 -3 15 9 13 12 11 12
-6z m63 -25 c0 -5 -2 -10 -4 -10 -3 0 -8 5 -11 10 -3 6 -1 10 4 10 6 0 11 -4
11 -10z m160 0 c0 -5 -2 -10 -4 -10 -3 0 -8 5 -11 10 -3 6 -1 10 4 10 6 0 11
-4 11 -10z m315 0 c3 -5 1 -10 -4 -10 -6 0 -11 5 -11 10 0 6 2 10 4 10 3 0 8
-4 11 -10z m-575 -14 c0 -2 -7 -7 -16 -10 -8 -3 -12 -2 -9 4 6 10 25 14 25 6z
m445 -6 c-3 -5 -12 -10 -18 -10 -7 0 -6 4 3 10 19 12 23 12 15 0z m-105 -20
c0 -5 -5 -10 -11 -10 -5 0 -7 5 -4 10 3 6 8 10 11 10 2 0 4 -4 4 -10z m40 0
c0 -5 -5 -10 -11 -10 -5 0 -7 5 -4 10 3 6 8 10 11 10 2 0 4 -4 4 -10z m-263
-25 c0 -8 -4 -12 -9 -9 -5 3 -6 10 -3 15 9 13 12 11 12 -6z m323 5 c0 -5 -5
-10 -11 -10 -5 0 -7 5 -4 10 3 6 8 10 11 10 2 0 4 -4 4 -10z m-140 -20 c0 -5
-2 -10 -4 -10 -3 0 -8 5 -11 10 -3 6 -1 10 4 10 6 0 11 -4 11 -10z m35 0 c3
-5 1 -10 -4 -10 -6 0 -11 5 -11 10 0 6 2 10 4 10 3 0 8 -4 11 -10z m-205 -16
c0 -8 -19 -13 -24 -6 -3 5 1 9 9 9 8 0 15 -2 15 -3z m320 0 c0 -8 -19 -13 -24
-6 -3 5 1 9 9 9 8 0 15 -2 15 -3z m224 -2 c3 -5 -1 -9 -9 -9 -8 0 -12 4 -9 9
3 4 7 8 9 8 2 0 6 -4 9 -8z m-559 -42 c3 -5 1 -10 -4 -10 -6 0 -11 5 -11 10 0
6 2 10 4 10 3 0 8 -4 11 -10z m319 2 c3 -5 -1 -9 -9 -9 -8 0 -12 4 -9 9 3 4 7
8 9 8 2 0 6 -4 9 -8z m246 4 c0 -3 -4 -8 -10 -11 -5 -3 -10 -1 -10 4 0 6 5 11
10 11 6 0 10 -2 10 -4z m-500 -26 c0 -5 -2 -10 -4 -10 -3 0 -8 5 -11 10 -3 6
-1 10 4 10 6 0 11 -4 11 -10z m40 0 c0 -5 -5 -10 -11 -10 -5 0 -7 5 -4 10 3 6
8 10 11 10 2 0 4 -4 4 -10z m315 0 c3 -5 1 -10 -4 -10 -6 0 -11 5 -11 10 0 6
2 10 4 10 3 0 8 -4 11 -10z m150 -20 c3 -6 -1 -7 -9 -4 -18 7 -21 14 -7 14 6
0 13 -4 16 -10z m-465 -20 c0 -5 -5 -10 -11 -10 -5 0 -7 5 -4 10 3 6 8 10 11
10 2 0 4 -4 4 -10z m320 0 c0 -5 -2 -10 -4 -10 -3 0 -8 5 -11 10 -3 6 -1 10 4
10 6 0 11 -4 11 -10z m-260 -14 c0 -3 -4 -8 -10 -11 -5 -3 -10 -1 -10 4 0 6 5
11 10 11 6 0 10 -2 10 -4z m37 -11 c0 -8 -4 -12 -9 -9 -5 3 -6 10 -3 15 9 13
12 11 12 -6z m37 7 c3 -5 -1 -9 -9 -9 -8 0 -12 4 -9 9 3 4 7 8 9 8 2 0 6 -4 9
-8z m146 -16 c0 -3 -4 -8 -10 -11 -5 -3 -10 -1 -10 4 0 6 5 11 10 11 6 0 10
-2 10 -4z m40 0 c0 -3 -4 -8 -10 -11 -5 -3 -10 -1 -10 4 0 6 5 11 10 11 6 0
10 -2 10 -4z m-90 -62 c0 -8 -19 -13 -24 -6 -3 5 1 9 9 9 8 0 15 -2 15 -3z"/>
<path d="M7760 6395 c0 -6 -8 -11 -17 -12 -52 -5 -79 -14 -106 -34 -16 -12
-26 -15 -22 -8 8 12 6 12 -8 0 -9 -7 -14 -17 -11 -22 3 -5 -2 -6 -10 -3 -18 7
-136 -107 -136 -131 0 -9 -4 -14 -9 -11 -9 6 -51 -82 -51 -108 0 -9 -4 -16 -8
-16 -5 0 -9 -7 -9 -15 0 -8 5 -15 11 -15 6 0 4 -5 -4 -10 -21 -13 -22 -111 -1
-128 15 -11 15 -12 0 -6 -14 4 -16 -1 -13 -27 2 -18 7 -35 12 -38 4 -3 9 -22
10 -41 2 -19 7 -37 11 -40 4 -3 15 -22 24 -42 10 -21 23 -38 29 -38 6 0 9 -3
5 -6 -8 -8 25 -44 35 -38 4 3 6 -1 3 -8 -2 -7 17 -29 43 -48 58 -44 102 -71
102 -65 0 3 10 0 23 -7 25 -14 21 -13 102 -28 33 -7 82 -9 110 -6 68 8 78 10
93 20 7 4 16 5 19 2 3 -3 25 6 49 19 24 14 44 22 44 18 0 -3 9 4 20 17 11 13
20 20 20 16 0 -5 16 8 36 28 20 20 40 36 45 36 5 0 9 5 9 10 0 10 38 69 51 80
5 4 21 44 24 60 0 3 6 15 13 26 6 12 9 24 6 26 -2 3 0 17 5 30 7 18 6 29 -2
38 -9 10 -9 11 0 6 10 -5 12 9 8 61 -3 37 -7 77 -9 88 -11 54 -19 75 -27 75
-5 0 -8 3 -8 8 3 20 -2 32 -13 26 -7 -4 -8 -3 -4 5 8 13 -14 52 -51 88 -12 13
-23 29 -23 35 0 5 -7 7 -16 4 -8 -3 -13 -2 -10 2 6 10 -30 43 -38 35 -3 -4 -6
-1 -6 5 0 7 -18 20 -40 29 -22 10 -40 21 -40 25 0 5 -11 8 -24 8 -14 0 -27 4
-30 9 -3 5 -19 8 -36 7 -16 -1 -30 1 -30 4 0 3 -29 6 -65 6 -36 -1 -65 -5 -65
-11 0 -5 -5 -3 -10 5 -5 8 -10 10 -10 5z m70 -55 c0 -5 -5 -10 -11 -10 -5 0
-7 5 -4 10 3 6 8 10 11 10 2 0 4 -4 4 -10z m155 -80 c3 -5 1 -10 -4 -10 -6 0
-11 5 -11 10 0 6 2 10 4 10 3 0 8 -4 11 -10z m5 -40 c0 -5 -2 -10 -4 -10 -3 0
-8 5 -11 10 -3 6 -1 10 4 10 6 0 11 -4 11 -10z m160 6 c0 -3 -4 -8 -10 -11 -5
-3 -10 -1 -10 4 0 6 5 11 10 11 6 0 10 -2 10 -4z m-425 -15 c3 -5 2 -12 -3
-15 -5 -3 -9 1 -9 9 0 17 3 19 12 6z m118 -6 c-3 -9 -8 -14 -10 -11 -3 3 -2 9
2 15 9 16 15 13 8 -4z m-316 -10 c0 -8 -4 -12 -9 -9 -4 3 -8 9 -8 15 0 5 4 9
8 9 5 0 9 -7 9 -15z m37 7 c3 -5 -1 -9 -9 -9 -8 0 -12 4 -9 9 3 4 7 8 9 8 2 0
6 -4 9 -8z m203 -7 c0 -8 -4 -12 -9 -9 -5 3 -6 10 -3 15 9 13 12 11 12 -6z
m38 5 c3 -5 1 -10 -4 -10 -6 0 -11 5 -11 10 0 6 2 10 4 10 3 0 8 -4 11 -10z
m-175 -20 c0 -5 -2 -10 -4 -10 -3 0 -8 5 -11 10 -3 6 -1 10 4 10 6 0 11 -4 11
-10z m35 0 c3 -5 1 -10 -4 -10 -6 0 -11 5 -11 10 0 6 2 10 4 10 3 0 8 -4 11
-10z m325 6 c0 -3 -4 -8 -10 -11 -5 -3 -10 -1 -10 4 0 6 5 11 10 11 6 0 10 -2
10 -4z m115 -6 c3 -5 1 -10 -4 -10 -6 0 -11 5 -11 10 0 6 2 10 4 10 3 0 8 -4
11 -10z m45 6 c0 -3 -4 -8 -10 -11 -5 -3 -10 -1 -10 4 0 6 5 11 10 11 6 0 10
-2 10 -4z m-480 -46 c0 -5 -5 -10 -11 -10 -5 0 -7 5 -4 10 3 6 8 10 11 10 2 0
4 -4 4 -10z m440 0 c0 -5 -2 -10 -4 -10 -3 0 -8 5 -11 10 -3 6 -1 10 4 10 6 0
11 -4 11 -10z m80 0 c0 -5 -5 -10 -11 -10 -5 0 -7 5 -4 10 3 6 8 10 11 10 2 0
4 -4 4 -10z m40 6 c0 -3 -4 -8 -10 -11 -5 -3 -10 -1 -10 4 0 6 5 11 10 11 6 0
10 -2 10 -4z m-305 -15 c3 -5 2 -12 -3 -15 -5 -3 -9 1 -9 9 0 17 3 19 12 6z
m-435 -11 c0 -5 -2 -10 -4 -10 -3 0 -8 5 -11 10 -3 6 -1 10 4 10 6 0 11 -4 11
-10z m410 4 c0 -8 -19 -13 -24 -6 -3 5 1 9 9 9 8 0 15 -2 15 -3z m70 -4 c0 -5
-5 -10 -11 -10 -5 0 -7 5 -4 10 3 6 8 10 11 10 2 0 4 -4 4 -10z m-300 -14 c0
-3 -4 -8 -10 -11 -5 -3 -10 -1 -10 4 0 6 5 11 10 11 6 0 10 -2 10 -4z m40 0
c0 -3 -4 -8 -10 -11 -5 -3 -10 -1 -10 4 0 6 5 11 10 11 6 0 10 -2 10 -4z
m-170 -22 c0 -8 -19 -13 -24 -6 -3 5 1 9 9 9 8 0 15 -2 15 -3z m-115 -24 c3
-5 1 -10 -4 -10 -6 0 -11 5 -11 10 0 6 2 10 4 10 3 0 8 -4 11 -10z m285 6 c0
-3 -4 -8 -10 -11 -5 -3 -10 -1 -10 4 0 6 5 11 10 11 6 0 10 -2 10 -4z m35 -6
c3 -5 1 -10 -4 -10 -6 0 -11 5 -11 10 0 6 2 10 4 10 3 0 8 -4 11 -10z m65 -20
c0 -5 -2 -10 -4 -10 -3 0 -8 5 -11 10 -3 6 -1 10 4 10 6 0 11 -4 11 -10z m400
4 c0 -8 -19 -13 -24 -6 -3 5 1 9 9 9 8 0 15 -2 15 -3z m34 -10 c3 -8 2 -12 -4
-9 -6 3 -10 10 -10 16 0 14 7 11 14 -7z m-814 -14 c0 -5 -5 -10 -11 -10 -5 0
-7 5 -4 10 3 6 8 10 11 10 2 0 4 -4 4 -10z m40 6 c0 -3 -4 -8 -10 -11 -5 -3
-10 -1 -10 4 0 6 5 11 10 11 6 0 10 -2 10 -4z m275 -6 c3 -5 1 -10 -4 -10 -6
0 -11 5 -11 10 0 6 2 10 4 10 3 0 8 -4 11 -10z m205 0 c0 -5 -5 -10 -11 -10
-5 0 -7 5 -4 10 3 6 8 10 11 10 2 0 4 -4 4 -10z m80 0 c0 -5 -2 -10 -4 -10 -3
0 -8 5 -11 10 -3 6 -1 10 4 10 6 0 11 -4 11 -10z m35 0 c3 -5 1 -10 -4 -10 -6
0 -11 5 -11 10 0 6 2 10 4 10 3 0 8 -4 11 -10z m-485 -16 c0 -8 -19 -13 -24
-6 -3 5 1 9 9 9 8 0 15 -2 15 -3z m224 -2 c3 -5 -1 -9 -9 -9 -8 0 -12 4 -9 9
3 4 7 8 9 8 2 0 6 -4 9 -8z m410 0 c3 -5 -1 -9 -9 -9 -8 0 -12 4 -9 9 3 4 7 8
9 8 2 0 6 -4 9 -8z m-584 -22 c0 -5 -2 -10 -4 -10 -3 0 -8 5 -11 10 -3 6 -1
10 4 10 6 0 11 -4 11 -10z m320 6 c0 -3 -4 -8 -10 -11 -5 -3 -10 -1 -10 4 0 6
5 11 10 11 6 0 10 -2 10 -4z m35 -6 c3 -5 1 -10 -4 -10 -6 0 -11 5 -11 10 0 6
2 10 4 10 3 0 8 -4 11 -10z m45 0 c0 -5 -5 -10 -11 -10 -5 0 -7 5 -4 10 3 6 8
10 11 10 2 0 4 -4 4 -10z m40 6 c0 -3 -4 -8 -10 -11 -5 -3 -10 -1 -10 4 0 6 5
11 10 11 6 0 10 -2 10 -4z m137 -21 c0 -8 -4 -12 -9 -9 -5 3 -6 10 -3 15 9 13
12 11 12 -6z m-803 -3 c3 -5 -1 -9 -9 -9 -8 0 -12 4 -9 9 3 4 7 8 9 8 2 0 6
-4 9 -8z m161 -2 c3 -5 1 -10 -4 -10 -6 0 -11 5 -11 10 0 6 2 10 4 10 3 0 8
-4 11 -10z m65 -20 c0 -5 -2 -10 -4 -10 -3 0 -8 5 -11 10 -3 6 -1 10 4 10 6 0
11 -4 11 -10z m40 0 c0 -5 -5 -10 -11 -10 -5 0 -7 5 -4 10 3 6 8 10 11 10 2 0
4 -4 4 -10z m315 0 c3 -5 1 -10 -4 -10 -6 0 -11 5 -11 10 0 6 2 10 4 10 3 0 8
-4 11 -10z m-315 -40 c0 -5 -5 -10 -11 -10 -5 0 -7 5 -4 10 3 6 8 10 11 10 2
0 4 -4 4 -10z m457 -15 c0 -8 -4 -12 -9 -9 -5 3 -6 10 -3 15 9 13 12 11 12 -6z
m-200 -10 c0 -8 -4 -12 -9 -9 -5 3 -6 10 -3 15 9 13 12 11 12 -6z m38 5 c3 -5
1 -10 -4 -10 -6 0 -11 5 -11 10 0 6 2 10 4 10 3 0 8 -4 11 -10z m45 0 c0 -5
-4 -10 -10 -10 -5 0 -10 5 -10 10 0 6 5 10 10 10 6 0 10 -4 10 -10z m40 0 c0
-5 -5 -10 -11 -10 -5 0 -7 5 -4 10 3 6 8 10 11 10 2 0 4 -4 4 -10z m35 1 c3
-5 2 -12 -3 -15 -5 -3 -9 1 -9 9 0 17 3 19 12 6z m-562 -36 c-3 -9 -8 -14 -10
-11 -3 3 -2 9 2 15 9 16 15 13 8 -4z m267 -25 c0 -5 -2 -10 -4 -10 -3 0 -8 5
-11 10 -3 6 -1 10 4 10 6 0 11 -4 11 -10z m480 0 c0 -5 -2 -10 -4 -10 -3 0 -8
5 -11 10 -3 6 -1 10 4 10 6 0 11 -4 11 -10z m-665 -9 c3 -5 2 -12 -3 -15 -5
-3 -9 1 -9 9 0 17 3 19 12 6z m-120 -11 c3 -5 1 -10 -4 -10 -6 0 -11 5 -11 10
0 6 2 10 4 10 3 0 8 -4 11 -10z m45 0 c0 -5 -4 -10 -10 -10 -5 0 -10 5 -10 10
0 6 5 10 10 10 6 0 10 -4 10 -10z m40 0 c0 -5 -2 -10 -4 -10 -3 0 -8 5 -11 10
-3 6 -1 10 4 10 6 0 11 -4 11 -10z m77 -5 c0 -8 -4 -12 -9 -9 -5 3 -6 10 -3
15 9 13 12 11 12 -6z m40 0 c0 -8 -4 -12 -9 -9 -5 3 -6 10 -3 15 9 13 12 11
12 -6z m38 5 c3 -5 1 -10 -4 -10 -6 0 -11 5 -11 10 0 6 2 10 4 10 3 0 8 -4 11
-10z m65 -20 c0 -5 -2 -10 -4 -10 -3 0 -8 5 -11 10 -3 6 -1 10 4 10 6 0 11 -4
11 -10z m40 0 c0 -5 -5 -10 -11 -10 -5 0 -7 5 -4 10 3 6 8 10 11 10 2 0 4 -4
4 -10z m40 6 c0 -3 -4 -8 -10 -11 -5 -3 -10 -1 -10 4 0 6 5 11 10 11 6 0 10
-2 10 -4z m280 -6 c0 -5 -2 -10 -4 -10 -3 0 -8 5 -11 10 -3 6 -1 10 4 10 6 0
11 -4 11 -10z m40 0 c0 -5 -5 -10 -11 -10 -5 0 -7 5 -4 10 3 6 8 10 11 10 2 0
4 -4 4 -10z m40 6 c0 -3 -4 -8 -10 -11 -5 -3 -10 -1 -10 4 0 6 5 11 10 11 6 0
10 -2 10 -4z m40 -6 c0 -5 -2 -10 -4 -10 -3 0 -8 5 -11 10 -3 6 -1 10 4 10 6
0 11 -4 11 -10z m-400 -40 c0 -5 -5 -10 -11 -10 -5 0 -7 5 -4 10 3 6 8 10 11
10 2 0 4 -4 4 -10z m40 0 c0 -5 -2 -10 -4 -10 -3 0 -8 5 -11 10 -3 6 -1 10 4
10 6 0 11 -4 11 -10z m35 0 c3 -5 1 -10 -4 -10 -6 0 -11 5 -11 10 0 6 2 10 4
10 3 0 8 -4 11 -10z m285 0 c0 -5 -2 -10 -4 -10 -3 0 -8 5 -11 10 -3 6 -1 10
4 10 6 0 11 -4 11 -10z m50 4 c0 -8 -19 -13 -24 -6 -3 5 1 9 9 9 8 0 15 -2 15
-3z m-790 -24 c0 -5 -2 -10 -4 -10 -3 0 -8 5 -11 10 -3 6 -1 10 4 10 6 0 11
-4 11 -10z m300 -20 c0 -5 -5 -10 -11 -10 -5 0 -7 5 -4 10 3 6 8 10 11 10 2 0
4 -4 4 -10z m80 0 c0 -5 -5 -10 -11 -10 -5 0 -7 5 -4 10 3 6 8 10 11 10 2 0 4
-4 4 -10z m360 6 c0 -3 -4 -8 -10 -11 -5 -3 -10 -1 -10 4 0 6 5 11 10 11 6 0
10 -2 10 -4z m-735 -26 c3 -6 -1 -7 -9 -4 -18 7 -21 14 -7 14 6 0 13 -4 16
-10z m95 -20 c0 -5 -5 -10 -11 -10 -5 0 -7 5 -4 10 3 6 8 10 11 10 2 0 4 -4 4
-10z m40 6 c0 -3 -4 -8 -10 -11 -5 -3 -10 -1 -10 4 0 6 5 11 10 11 6 0 10 -2
10 -4z m160 0 c0 -3 -4 -8 -10 -11 -5 -3 -10 -1 -10 4 0 6 5 11 10 11 6 0 10
-2 10 -4z m35 -6 c3 -5 1 -10 -4 -10 -6 0 -11 5 -11 10 0 6 2 10 4 10 3 0 8
-4 11 -10z m302 -15 c0 -8 -4 -12 -9 -9 -5 3 -6 10 -3 15 9 13 12 11 12 -6z
m-162 -4 c3 -5 2 -12 -3 -15 -5 -3 -9 1 -9 9 0 17 3 19 12 6z m85 5 c0 -3 -4
-8 -10 -11 -5 -3 -10 -1 -10 4 0 6 5 11 10 11 6 0 10 -2 10 -4z m-420 -26 c0
-5 -2 -10 -4 -10 -3 0 -8 5 -11 10 -3 6 -1 10 4 10 6 0 11 -4 11 -10z m195 0
c3 -5 1 -10 -4 -10 -6 0 -11 5 -11 10 0 6 2 10 4 10 3 0 8 -4 11 -10z m145
-16 c0 -8 -19 -13 -24 -6 -3 5 1 9 9 9 8 0 15 -2 15 -3z m120 -4 c0 -5 -2 -10
-4 -10 -3 0 -8 5 -11 10 -3 6 -1 10 4 10 6 0 11 -4 11 -10z m-300 -20 c0 -5
-5 -10 -11 -10 -5 0 -7 5 -4 10 3 6 8 10 11 10 2 0 4 -4 4 -10z m40 6 c0 -3
-4 -8 -10 -11 -5 -3 -10 -1 -10 4 0 6 5 11 10 11 6 0 10 -2 10 -4z m40 -6 c0
-5 -2 -10 -4 -10 -3 0 -8 5 -11 10 -3 6 -1 10 4 10 6 0 11 -4 11 -10z m35 0
c3 -5 1 -10 -4 -10 -6 0 -11 5 -11 10 0 6 2 10 4 10 3 0 8 -4 11 -10z m65 -20
c0 -5 -5 -10 -11 -10 -5 0 -7 5 -4 10 3 6 8 10 11 10 2 0 4 -4 4 -10z m-360
-14 c0 -3 -4 -8 -10 -11 -5 -3 -10 -1 -10 4 0 6 5 11 10 11 6 0 10 -2 10 -4z
m120 -26 c0 -5 -5 -10 -11 -10 -5 0 -7 5 -4 10 3 6 8 10 11 10 2 0 4 -4 4 -10z
m237 -5 c0 -8 -4 -12 -9 -9 -5 3 -6 10 -3 15 9 13 12 11 12 -6z m-76 -32 c13
-16 12 -17 -3 -4 -10 7 -18 15 -18 17 0 8 8 3 21 -13z m-41 -17 c0 -2 -7 -7
-16 -10 -8 -3 -12 -2 -9 4 6 10 25 14 25 6z"/>
</g>
</svg>
